<svg width="64" height="64" viewBox="0 0 64 64" fill="none" xmlns="http://www.w3.org/2000/svg">
<g filter="url(#filter0_d)">
<ellipse cx="32.4944" cy="31.8721" rx="23.5056" ry="23.5982" fill="#663FD3"/>
</g>
<path d="M45.0622 26.9447C45.0032 25.6013 44.7868 24.6777 44.4769 23.8774C44.1571 23.0279 43.6651 22.2674 43.0205 21.6351C42.3907 20.993 41.6282 20.4941 40.7918 20.178C39.99 19.8668 39.0748 19.6496 37.7367 19.5903C36.3885 19.5261 35.9605 19.5112 32.5412 19.5112C29.1219 19.5112 28.694 19.5261 27.3508 19.5853C26.0126 19.6446 25.0927 19.862 24.2957 20.173C23.4493 20.4941 22.6918 20.988 22.062 21.6351C21.4224 22.2674 20.9256 23.0329 20.6106 23.8726C20.3006 24.6777 20.0842 25.5963 20.0252 26.9397C19.9612 28.2932 19.9464 28.7229 19.9464 32.1556C19.9464 35.5884 19.9612 36.018 20.0202 37.3665C20.0792 38.7099 20.2958 39.6335 20.6058 40.4338C20.9256 41.2833 21.4224 42.0439 22.062 42.6761C22.6918 43.3182 23.4543 43.8172 24.2907 44.1332C25.0927 44.4444 26.0077 44.6617 27.346 44.7209C28.689 44.7803 29.1171 44.795 32.5364 44.795C35.9557 44.795 36.3837 44.7803 37.7269 44.7209C39.065 44.6617 39.985 44.4444 40.782 44.1332C42.4745 43.4763 43.8127 42.1328 44.4671 40.4338C44.7769 39.6287 44.9934 38.7099 45.0524 37.3665C45.1114 36.018 45.1262 35.5884 45.1262 32.1556C45.1262 28.7229 45.1212 28.2932 45.0622 26.9447ZM42.7943 37.2677C42.7401 38.5025 42.5335 39.1693 42.3613 39.6138C41.9381 40.7153 41.0674 41.5895 39.9702 42.0144C39.5274 42.1872 38.8584 42.3947 37.6333 42.4489C36.3049 42.5083 35.9065 42.523 32.5462 42.523C29.1859 42.523 28.7826 42.5083 27.459 42.4489C26.229 42.3947 25.5649 42.1872 25.1221 42.0144C24.5761 41.8118 24.0791 41.4907 23.6757 41.0709C23.2575 40.6609 22.9377 40.167 22.736 39.6189C22.5638 39.1743 22.3572 38.5025 22.3032 37.2727C22.244 35.9391 22.2294 35.539 22.2294 32.1655C22.2294 28.7919 22.244 28.387 22.3032 27.0584C22.3572 25.8236 22.5638 25.1568 22.736 24.7123C22.9377 24.1639 23.2575 23.6652 23.6807 23.26C24.0889 22.8402 24.5809 22.5191 25.1271 22.3167C25.5699 22.1439 26.239 21.9365 27.464 21.8821C28.7924 21.8228 29.1909 21.808 32.551 21.808C35.9163 21.808 36.3147 21.8228 37.6383 21.8821C38.8682 21.9365 39.5324 22.1439 39.9752 22.3167C40.5212 22.5191 41.0182 22.8402 41.4216 23.26C41.8397 23.67 42.1595 24.1639 42.3613 24.7123C42.5335 25.1568 42.7401 25.8284 42.7943 27.0584C42.8533 28.392 42.8681 28.7919 42.8681 32.1655C42.8681 35.539 42.8533 35.9341 42.7943 37.2677Z" fill="white"/>
<path d="M32.5411 25.6602C28.9695 25.6602 26.0715 28.5693 26.0715 32.1552C26.0715 35.7412 28.9695 38.6503 32.5411 38.6503C36.113 38.6503 39.0107 35.7412 39.0107 32.1552C39.0107 28.5693 36.113 25.6602 32.5411 25.6602ZM32.5411 36.3684C30.224 36.3684 28.3445 34.4817 28.3445 32.1552C28.3445 29.8288 30.224 27.942 32.5411 27.942C34.8585 27.942 36.7378 29.8288 36.7378 32.1552C36.7378 34.4817 34.8585 36.3684 32.5411 36.3684Z" fill="white"/>
<path d="M40.7771 25.4035C40.7771 26.2409 40.1008 26.9198 39.2666 26.9198C38.4325 26.9198 37.7562 26.2409 37.7562 25.4035C37.7562 24.566 38.4325 23.8872 39.2666 23.8872C40.1008 23.8872 40.7771 24.566 40.7771 25.4035Z" fill="white"/>
<defs>
<filter id="filter0_d" x="0.988754" y="0.273926" width="63.0113" height="63.1963" filterUnits="userSpaceOnUse" color-interpolation-filters="sRGB">
<feFlood flood-opacity="0" result="BackgroundImageFix"/>
<feColorMatrix in="SourceAlpha" type="matrix" values="0 0 0 0 0 0 0 0 0 0 0 0 0 0 0 0 0 0 127 0"/>
<feMorphology radius="4" operator="dilate" in="SourceAlpha" result="effect1_dropShadow"/>
<feOffset/>
<feGaussianBlur stdDeviation="2"/>
<feColorMatrix type="matrix" values="0 0 0 0 0.4 0 0 0 0 0.247059 0 0 0 0 0.827451 0 0 0 0.25 0"/>
<feBlend mode="normal" in2="BackgroundImageFix" result="effect1_dropShadow"/>
<feBlend mode="normal" in="SourceGraphic" in2="effect1_dropShadow" result="shape"/>
</filter>
</defs>
</svg>
