<svg width="65" height="64" viewBox="0 0 65 64" fill="none" xmlns="http://www.w3.org/2000/svg">
<g filter="url(#filter0_d)">
<ellipse cx="32.5" cy="31.8721" rx="23.5056" ry="23.5982" fill="#663FD3"/>
</g>
<path d="M41.7295 40.5813V40.5804H41.7344V33.3682C41.7344 29.84 40.9778 27.1221 36.8692 27.1221C34.8941 27.1221 33.5686 28.2102 33.0275 29.2418H32.9703V27.4515H29.0748V40.5804H33.1311V34.0795C33.1311 32.3678 33.4543 30.7126 35.5658 30.7126C37.6462 30.7126 37.6772 32.666 37.6772 34.1893V40.5813H41.7295Z" fill="white"/>
<path d="M22.4694 27.4526H26.5306V40.5816H22.4694V27.4526Z" fill="white"/>
<path d="M24.4984 20.916C23.1999 20.916 22.1462 21.9738 22.1462 23.2775C22.1462 24.5811 23.1999 25.6611 24.4984 25.6611C25.797 25.6611 26.8506 24.5811 26.8506 23.2775C26.8498 21.9738 25.7962 20.916 24.4984 20.916V20.916Z" fill="white"/>
<defs>
<filter id="filter0_d" x="0.994408" y="0.273926" width="63.0113" height="63.1963" filterUnits="userSpaceOnUse" color-interpolation-filters="sRGB">
<feFlood flood-opacity="0" result="BackgroundImageFix"/>
<feColorMatrix in="SourceAlpha" type="matrix" values="0 0 0 0 0 0 0 0 0 0 0 0 0 0 0 0 0 0 127 0"/>
<feMorphology radius="4" operator="dilate" in="SourceAlpha" result="effect1_dropShadow"/>
<feOffset/>
<feGaussianBlur stdDeviation="2"/>
<feColorMatrix type="matrix" values="0 0 0 0 0.4 0 0 0 0 0.247059 0 0 0 0 0.827451 0 0 0 0.25 0"/>
<feBlend mode="normal" in2="BackgroundImageFix" result="effect1_dropShadow"/>
<feBlend mode="normal" in="SourceGraphic" in2="effect1_dropShadow" result="shape"/>
</filter>
</defs>
</svg>
