<svg width="156" height="55" viewBox="0 0 156 55" fill="none" xmlns="http://www.w3.org/2000/svg">
<g clip-path="url(#clip0)">
<path d="M46.5512 24.7146V31.3011C46.5512 32.5014 46.2677 33.3939 45.7008 33.9787C45.1339 34.5943 44.378 34.8713 43.4331 34.8713C41.6063 34.8713 40.6929 33.7941 40.6929 31.6704V24.7146H36.7874V32.2244C36.7874 34.1942 37.2913 35.7023 38.3307 36.6872C39.3701 37.7028 40.7874 38.1953 42.5512 38.1953C43.4016 38.1953 44.1575 38.0414 44.8819 37.7336C45.6063 37.4258 46.2362 36.995 46.7402 36.4102V37.9798H50.4567V24.7146H46.5512Z" fill="white"/>
<path d="M67.3386 31.4242C67.3386 30.0392 67.0237 28.8081 66.4252 27.7616C65.8268 26.7152 64.9764 25.9149 63.9056 25.3609C62.8347 24.8069 61.6378 24.5299 60.315 24.5299C58.9607 24.5299 57.7323 24.8069 56.63 25.3917C55.5276 25.9765 54.6772 26.8075 54.0473 27.8539C53.4174 28.9004 53.1024 30.0699 53.1024 31.3934C53.1024 32.7168 53.4174 33.8864 54.0473 34.9328C54.6772 35.9793 55.5906 36.7795 56.756 37.3643C57.9213 37.9491 59.2756 38.2261 60.7875 38.2261C63.2441 38.2261 65.1024 37.5182 66.3623 36.0716L64.2835 33.8556C63.8111 34.2865 63.3071 34.6251 62.7717 34.8405C62.2363 35.056 61.6063 35.1483 60.9134 35.1483C59.9056 35.1483 59.0237 34.9021 58.3623 34.4404C57.6693 33.948 57.2284 33.3016 57.0709 32.4706H67.2756C67.3386 31.8243 67.3386 31.4857 67.3386 31.4242ZM57.0079 30.1931C57.1339 29.3313 57.5119 28.6542 58.1103 28.1617C58.7087 27.6693 59.4646 27.4231 60.3465 27.4231C61.2284 27.4231 61.9528 27.6693 62.5512 28.1925C63.1497 28.6849 63.5276 29.3621 63.6536 30.2238L57.0079 30.1931Z" fill="white"/>
<path d="M80.0945 31.732C79.5906 31.178 78.9607 30.8086 78.2677 30.5932C77.5748 30.3777 76.6614 30.1931 75.5591 30.0084C74.5827 29.8545 73.8583 29.7006 73.4173 29.5467C72.9764 29.3928 72.7559 29.0851 72.7559 28.6849C72.7559 28.3156 72.9764 28.0386 73.3858 27.7924C73.7953 27.5462 74.4252 27.4538 75.2756 27.4538C76.6929 27.4538 77.9843 27.7924 79.1811 28.4387L80.4725 25.6995C79.8425 25.3302 79.0551 25.0532 78.1103 24.8377C77.1654 24.6223 76.2205 24.5299 75.2756 24.5299C73.9843 24.5299 72.8819 24.7146 71.937 25.0839C70.9921 25.4533 70.2677 25.9457 69.7638 26.6228C69.2599 27.2692 69.0079 28.0078 69.0079 28.8696C69.0079 29.8853 69.2599 30.6547 69.7953 31.2087C70.3307 31.7627 70.9606 32.1321 71.6536 32.3475C72.378 32.563 73.2914 32.7476 74.3937 32.9015C75.3386 33.0246 76.0315 33.1477 76.4725 33.3324C76.9134 33.4863 77.1654 33.7633 77.1654 34.1634C77.1654 34.9636 76.3465 35.3637 74.6772 35.3637C73.8583 35.3637 73.0079 35.2406 72.1575 34.9944C71.3071 34.7482 70.5827 34.4404 69.9843 34.0711L68.6929 36.8411C69.3229 37.2412 70.1732 37.6105 71.2441 37.8567C72.315 38.1337 73.4173 38.2569 74.5197 38.2569C75.8425 38.2569 76.9764 38.0722 77.9528 37.7336C78.9292 37.3643 79.6536 36.8719 80.1575 36.2255C80.6614 35.5792 80.9134 34.8405 80.9134 34.0095C80.8819 33.0246 80.6299 32.2552 80.0945 31.732Z" fill="white"/>
<path d="M90.9606 34.6558C90.5197 34.9944 89.9843 35.1483 89.3858 35.1483C88.8504 35.1483 88.441 34.9944 88.1575 34.6866C87.874 34.3788 87.7165 33.948 87.7165 33.394V27.9771H91.0866V25.0224H87.7165V21.7907H83.7795V25.0224H81.7008V27.9771H83.7795V33.4555C83.7795 35.0252 84.2205 36.2255 85.1024 37.0257C85.9843 37.826 87.2126 38.2261 88.8189 38.2261C89.4488 38.2261 90.0158 38.1645 90.5827 38.0106C91.1496 37.8567 91.6221 37.6721 92 37.3951L90.9606 34.6558Z" fill="white"/>
<path d="M137.512 26.0073C136.472 25.0224 135.15 24.5299 133.449 24.5299C132.535 24.5299 131.685 24.6838 130.898 24.9916C130.142 25.2994 129.48 25.7303 128.976 26.2843V24.7146H125.228V38.0414H129.134V31.455C129.134 30.2854 129.417 29.3621 130.016 28.7773C130.614 28.1617 131.402 27.8847 132.378 27.8847C133.26 27.8847 133.953 28.1309 134.394 28.6542C134.866 29.1774 135.087 29.9468 135.087 31.0241V38.0414H138.992V30.4085C139.055 28.4695 138.551 26.9922 137.512 26.0073Z" fill="white"/>
<path d="M156 31.4242C156 30.0392 155.685 28.8388 155.087 27.7616C154.488 26.7152 153.638 25.9149 152.567 25.3609C151.496 24.8069 150.299 24.5299 148.976 24.5299C147.622 24.5299 146.394 24.8377 145.291 25.4225C144.189 26.0073 143.339 26.8383 142.709 27.8847C142.079 28.9312 141.764 30.1007 141.764 31.4242C141.764 32.7476 142.079 33.9172 142.709 34.9636C143.339 36.0101 144.252 36.8103 145.417 37.3951C146.583 37.9799 147.937 38.2569 149.48 38.2569C151.906 38.2569 153.795 37.549 155.055 36.1024L152.976 33.8864C152.504 34.3481 152 34.6559 151.465 34.8713C150.929 35.0867 150.299 35.1791 149.575 35.1791C148.567 35.1791 147.685 34.9329 147.024 34.4712C146.331 33.9787 145.89 33.3324 145.732 32.5014H155.906C155.937 31.8243 156 31.4857 156 31.4242ZM145.638 30.2238C145.764 29.3621 146.142 28.6849 146.74 28.1925C147.339 27.7001 148.095 27.4538 148.976 27.4538C149.858 27.4538 150.583 27.7001 151.181 28.2233C151.78 28.7157 152.157 29.3928 152.283 30.2238H145.638Z" fill="white"/>
<path d="M117.858 22.3755H121.543C121.575 22.3755 121.606 22.3447 121.606 22.3139V17.5126C121.606 17.4818 121.575 17.451 121.543 17.451H117.858C117.764 17.451 117.701 17.5126 117.701 17.6049V22.2216C117.701 22.3139 117.764 22.3755 117.858 22.3755Z" fill="white"/>
<path d="M106.142 49.6447L104.85 53.2149L103.559 49.6447H102.236L100.913 53.2149L99.6535 49.6447H98.1732L100.094 54.9384H101.575L102.835 51.6452L104.031 54.9384H105.543L107.465 49.6447H106.142Z" fill="white"/>
<path d="M113.354 52.2916C113.354 51.7376 113.228 51.2759 113.008 50.845C112.756 50.4141 112.441 50.1063 112 49.8909C111.591 49.6755 111.087 49.5523 110.583 49.5523C110.047 49.5523 109.543 49.6755 109.134 49.8909C108.693 50.1063 108.346 50.4449 108.094 50.8758C107.842 51.3067 107.716 51.7683 107.716 52.2916C107.716 52.8148 107.842 53.2765 108.094 53.7073C108.346 54.1075 108.693 54.446 109.165 54.6615C109.638 54.8769 110.173 55 110.772 55C111.748 55 112.472 54.723 112.976 54.1382L112.126 53.2457C111.937 53.4303 111.748 53.5535 111.528 53.615C111.307 53.7073 111.055 53.7381 110.803 53.7381C110.394 53.7381 110.047 53.6458 109.795 53.4611C109.512 53.2765 109.354 52.9995 109.291 52.6917H113.354C113.354 52.4455 113.354 52.3223 113.354 52.2916ZM109.228 51.7991C109.291 51.4606 109.417 51.1836 109.669 50.9989C109.921 50.7835 110.205 50.6911 110.551 50.6911C110.898 50.6911 111.181 50.7835 111.433 50.9989C111.685 51.1836 111.811 51.4606 111.874 51.7991H109.228Z" fill="white"/>
<path d="M119.874 50.845C119.654 50.4449 119.307 50.1063 118.898 49.8909C118.488 49.6754 118.047 49.5523 117.543 49.5523C116.85 49.5523 116.315 49.7678 115.937 50.1987V47.6441H114.362V54.9385H115.842V54.3229C116.22 54.7846 116.787 55 117.543 55C118.047 55 118.488 54.8769 118.898 54.6615C119.307 54.446 119.622 54.1075 119.874 53.7073C120.094 53.3072 120.22 52.8148 120.22 52.2916C120.22 51.7376 120.126 51.2451 119.874 50.845ZM118.268 53.338C118.016 53.615 117.669 53.7381 117.291 53.7381C116.882 53.7381 116.567 53.615 116.315 53.338C116.063 53.061 115.937 52.7224 115.937 52.2608C115.937 51.7991 116.063 51.4606 116.315 51.1836C116.567 50.9066 116.882 50.7834 117.291 50.7834C117.701 50.7834 118.016 50.9373 118.268 51.1836C118.52 51.4606 118.646 51.7991 118.646 52.2608C118.646 52.7224 118.52 53.0918 118.268 53.338Z" fill="white"/>
<path d="M128.126 52.4147C127.937 52.1992 127.685 52.0453 127.402 51.953C127.118 51.8607 126.772 51.7991 126.331 51.7376C125.953 51.676 125.638 51.6145 125.48 51.5529C125.323 51.4913 125.228 51.3682 125.228 51.2143C125.228 51.0605 125.323 50.9373 125.48 50.8758C125.638 50.7835 125.89 50.7219 126.236 50.7219C126.803 50.7219 127.307 50.845 127.78 51.122L128.283 50.014C128.031 49.8601 127.717 49.7678 127.37 49.6754C126.992 49.5831 126.614 49.5523 126.236 49.5523C125.732 49.5523 125.291 49.6139 124.913 49.7678C124.535 49.9217 124.252 50.1063 124.063 50.3833C123.874 50.6296 123.779 50.9373 123.779 51.2759C123.779 51.676 123.874 51.9838 124.094 52.1992C124.315 52.4147 124.535 52.5686 124.85 52.6609C125.134 52.7532 125.48 52.8148 125.921 52.8763C126.299 52.9379 126.583 52.9687 126.74 53.0302C126.929 53.0918 126.992 53.1841 126.992 53.3688C126.992 53.6766 126.677 53.8612 126.016 53.8612C125.701 53.8612 125.354 53.7997 125.008 53.7073C124.661 53.615 124.378 53.4919 124.126 53.338L123.622 54.446C123.874 54.5999 124.22 54.7538 124.63 54.8461C125.039 54.9692 125.48 55 125.921 55C126.457 55 126.898 54.9385 127.276 54.7846C127.654 54.6307 127.937 54.446 128.157 54.1998C128.378 53.9536 128.472 53.6458 128.472 53.338C128.441 52.9379 128.315 52.6301 128.126 52.4147Z" fill="white"/>
<path d="M132.441 53.5842C132.283 53.7074 132.063 53.7689 131.811 53.7689C131.591 53.7689 131.433 53.7074 131.307 53.5842C131.181 53.4611 131.15 53.2765 131.15 53.061V50.9066H132.472V49.737H131.15V48.4443H129.606V49.737H128.787V50.9066H129.606V53.0918C129.606 53.7074 129.764 54.169 130.11 54.5076C130.457 54.8154 130.961 55 131.591 55C131.843 55 132.063 54.9692 132.283 54.9077C132.504 54.8461 132.693 54.7538 132.85 54.6615L132.441 53.5842Z" fill="white"/>
<path d="M137.575 49.6447V52.2608C137.575 52.7224 137.48 53.0918 137.228 53.338C137.008 53.5842 136.693 53.7073 136.315 53.7073C135.591 53.7073 135.244 53.2764 135.244 52.4454V49.6754H133.701V52.6609C133.701 53.4611 133.89 54.0459 134.299 54.446C134.709 54.8461 135.276 55.0308 135.969 55.0308C136.283 55.0308 136.598 54.9692 136.882 54.8461C137.165 54.723 137.417 54.5383 137.606 54.3229V54.9692H139.087V49.6754H137.575V49.6447Z" fill="white"/>
<path d="M144.472 47.6441V50.1987C144.094 49.7678 143.559 49.5523 142.866 49.5523C142.362 49.5523 141.921 49.6754 141.512 49.8909C141.102 50.1063 140.787 50.4449 140.535 50.845C140.315 51.2759 140.189 51.7376 140.189 52.2916C140.189 52.8456 140.315 53.3072 140.535 53.7381C140.756 54.1382 141.071 54.4768 141.512 54.6922C141.921 54.9077 142.362 55.0308 142.866 55.0308C143.591 55.0308 144.157 54.8153 144.535 54.3537V54.9692H146.016V47.6749L144.472 47.6441ZM144.126 53.338C143.874 53.615 143.559 53.7381 143.15 53.7381C142.74 53.7381 142.425 53.615 142.173 53.338C141.921 53.061 141.795 52.7224 141.795 52.2608C141.795 51.7991 141.921 51.4606 142.173 51.1836C142.425 50.9066 142.772 50.7834 143.15 50.7834C143.528 50.7834 143.874 50.9373 144.126 51.1836C144.378 51.4606 144.504 51.7991 144.504 52.2608C144.535 52.7224 144.378 53.0918 144.126 53.338Z" fill="white"/>
<path d="M147.465 49.6447V54.9384H149.039V49.6447H147.465ZM148.945 47.4287C148.756 47.2748 148.535 47.1824 148.252 47.1824C147.968 47.1824 147.717 47.2748 147.559 47.4287C147.37 47.5825 147.276 47.798 147.276 48.0442C147.276 48.2904 147.37 48.5059 147.559 48.6598C147.717 48.8137 147.968 48.906 148.252 48.906C148.535 48.906 148.756 48.8137 148.945 48.6598C149.102 48.5059 149.197 48.2904 149.197 48.0134C149.228 47.7672 149.134 47.5825 148.945 47.4287Z" fill="white"/>
<path d="M155.591 50.8758C155.339 50.4757 154.992 50.1371 154.551 49.9217C154.11 49.7062 153.606 49.5831 153.039 49.5831C152.472 49.5831 151.969 49.7062 151.528 49.9217C151.087 50.1371 150.74 50.4757 150.488 50.8758C150.236 51.2759 150.11 51.7683 150.11 52.2915C150.11 52.8148 150.236 53.2764 150.488 53.7073C150.74 54.1074 151.087 54.446 151.528 54.6614C151.969 54.8769 152.472 55 153.039 55C153.606 55 154.11 54.8769 154.551 54.6614C154.992 54.446 155.339 54.1074 155.591 53.7073C155.843 53.2764 155.969 52.8148 155.969 52.2915C156 51.7375 155.843 51.2759 155.591 50.8758ZM154.016 53.338C153.764 53.615 153.417 53.7381 153.039 53.7381C152.661 53.7381 152.315 53.615 152.063 53.338C151.811 53.061 151.685 52.7224 151.685 52.2608C151.685 51.7991 151.811 51.4605 152.063 51.1835C152.315 50.9065 152.661 50.7834 153.039 50.7834C153.449 50.7834 153.764 50.9373 154.016 51.1835C154.268 51.4605 154.394 51.7991 154.394 52.2608C154.394 52.7224 154.268 53.0918 154.016 53.338Z" fill="white"/>
<path d="M105.512 10.0643C105.512 8.80246 104.031 7.94068 102.835 8.58701C101.26 9.41801 100.189 10.9877 100.189 12.8036V28.1309C100.189 28.5926 100.346 29.0543 100.63 29.3928C101.039 29.8237 101.606 30.1007 102.236 30.1007H104.693C105.134 30.1007 105.48 29.7622 105.48 29.3313V10.0643H105.512Z" fill="url(#paint0_linear)"/>
<path d="M113.134 32.4091C114.425 32.4091 115.276 33.8864 114.646 35.056C113.795 36.5948 112.189 37.6413 110.362 37.6413H102.142C101.669 37.6413 101.197 37.4874 100.85 37.2104C100.409 36.8103 100.126 36.2255 100.126 35.6407V33.2093C100.126 32.7784 100.472 32.4398 100.913 32.4398L113 32.4091H113.134Z" fill="url(#paint1_linear)"/>
<path d="M105.512 10.0643C105.512 8.80246 104.031 7.94068 102.835 8.58701C101.26 9.41801 100.189 10.9877 100.189 12.8036V28.1309C100.189 28.5926 100.346 29.0543 100.63 29.3928C101.039 29.8237 101.606 30.1007 102.236 30.1007H104.693C105.134 30.1007 105.48 29.7622 105.48 29.3313V10.0643H105.512Z" fill="url(#paint2_linear)"/>
<path d="M30.0551 33.4785C30.0551 34.9558 28.8583 36.1253 27.378 36.1253C26.937 36.1253 26.4961 36.0022 26.1181 35.8176C26.0551 35.7868 25.9921 35.756 25.9291 35.6945C25.8976 35.6637 25.8661 35.6329 25.8346 35.6329C23.189 34.1556 20.1339 33.2938 16.8583 33.2938C16.6378 33.2938 16.4173 33.2938 16.2283 33.2938C12.7953 33.1707 9.61417 32.0011 7 30.1237C9.99213 28.7694 13.3622 28 16.8583 28C20.0394 28 23.063 28.6156 25.8346 29.7236C26.1496 29.8467 26.4331 29.9698 26.7165 30.0929C27.378 30.4007 28.0394 30.7392 28.6693 31.0778C28.7008 31.1086 28.7323 31.1086 28.7953 31.1393C28.8268 31.1393 28.8583 31.1701 28.8898 31.2009C28.9213 31.2317 28.9528 31.2317 28.9843 31.2625C29.6142 31.7857 30.0551 32.5859 30.0551 33.4785Z" fill="url(#paint3_linear)"/>
<path d="M25.7008 35.2714C25.7323 35.3022 25.7638 35.3329 25.7953 35.3329C25.7638 35.3329 25.7323 35.3022 25.7008 35.2714Z" fill="#2D344A"/>
<path d="M28.8189 30.9317C28.7874 30.9317 28.7559 30.901 28.7244 30.8702C28.7559 30.901 28.7874 30.901 28.8189 30.9317Z" fill="#2D344A"/>
<path d="M33.4488 16.4661C33.4488 18.7437 32.9764 20.8982 32.1575 22.8372C32.0945 22.9603 32.0315 23.1142 31.9685 23.2373V23.268C31.622 23.8528 31.0551 24.3145 30.3937 24.5299C30.1417 24.5915 29.8898 24.6531 29.6063 24.6531C29.1339 24.6531 28.7244 24.5299 28.3465 24.3453C28.2835 24.3145 28.2205 24.2837 28.1575 24.2222C28.126 24.1914 28.0945 24.1606 28.063 24.1606C27.3701 23.6989 26.9291 22.8987 26.9291 22.0369C26.9291 21.7599 26.9921 21.4829 27.0551 21.2059V21.1752C27.1181 21.052 27.1811 20.9289 27.2126 20.8058V20.775C27.2756 20.6212 27.3386 20.4365 27.4016 20.2826C27.4016 20.2518 27.4331 20.221 27.4331 20.221C27.874 19.0515 28.0945 17.7588 28.0945 16.4354C28.0945 10.249 23.0236 5.26301 16.7559 5.26301C15.0236 5.26301 13.3858 5.63235 11.937 6.30946C8.0315 8.12535 5.35433 12.0034 5.35433 16.4661C5.35433 22.6525 10.4252 27.6385 16.6929 27.6385C13.1654 27.6385 9.82677 28.4079 6.83465 29.7622C2.67717 26.7767 0 21.9446 0 16.4661C0 10.5568 3.1811 5.35534 7.93701 2.46223C10.4882 0.892557 13.4803 0 16.7244 0C25.9528 0 33.4488 7.38668 33.4488 16.4661Z" fill="url(#paint4_linear)"/>
<path d="M32.126 22.868C32.063 23.0218 32.0315 23.145 31.937 23.2681C32 23.145 32.063 22.9911 32.126 22.868Z" fill="#0F174C"/>
<path d="M117.701 38.0414H121.606V24.5915C121.606 24.5607 121.575 24.5299 121.543 24.5299H117.764C117.732 24.5299 117.701 24.5607 117.701 24.5915V38.0414Z" fill="white"/>
</g>
<defs>
<linearGradient id="paint0_linear" x1="102.854" y1="30.095" x2="102.854" y2="8.36387" gradientUnits="userSpaceOnUse">
<stop stop-color="#F3F348"/>
<stop offset="0.2235" stop-color="#CCE64F"/>
<stop offset="0.7207" stop-color="#6AC761"/>
<stop offset="1" stop-color="#31B46C"/>
</linearGradient>
<linearGradient id="paint1_linear" x1="100.131" y1="35.039" x2="114.849" y2="35.039" gradientUnits="userSpaceOnUse">
<stop stop-color="#F3F348"/>
<stop offset="0.2235" stop-color="#CCE64F"/>
<stop offset="0.7207" stop-color="#6AC761"/>
<stop offset="1" stop-color="#31B46C"/>
</linearGradient>
<linearGradient id="paint2_linear" x1="102.854" y1="30.095" x2="102.854" y2="8.36387" gradientUnits="userSpaceOnUse">
<stop stop-color="#F3F348"/>
<stop offset="0.2235" stop-color="#CCE64F"/>
<stop offset="0.7207" stop-color="#6AC761"/>
<stop offset="1" stop-color="#31B46C"/>
</linearGradient>
<linearGradient id="paint3_linear" x1="6.95219" y1="32.0693" x2="30.056" y2="32.0693" gradientUnits="userSpaceOnUse">
<stop stop-color="#31B46C"/>
<stop offset="0.2793" stop-color="#6AC761"/>
<stop offset="0.7765" stop-color="#CCE64F"/>
<stop offset="1" stop-color="#F3F348"/>
</linearGradient>
<linearGradient id="paint4_linear" x1="16.7178" y1="29.7761" x2="16.7178" y2="0" gradientUnits="userSpaceOnUse">
<stop stop-color="#F3F348"/>
<stop offset="0.2235" stop-color="#CCE64F"/>
<stop offset="0.7207" stop-color="#6AC761"/>
<stop offset="1" stop-color="#31B46C"/>
</linearGradient>
<clipPath id="clip0">
<rect width="156" height="55" fill="white"/>
</clipPath>
</defs>
</svg>
