<svg width="20" height="20" viewBox="0 0 20 20" fill="none" xmlns="http://www.w3.org/2000/svg">
<path fill-rule="evenodd" clip-rule="evenodd" d="M0.00012207 10C0.00012207 4.48 4.47012 0 10.0001 0C15.5201 0 20.0001 4.48 20.0001 10C20.0001 15.52 15.5201 20 10.0001 20C4.47012 20 0.00012207 15.52 0.00012207 10ZM5.52012 11.2C4.86012 11.2 4.32012 10.66 4.32012 10C4.32012 9.34 4.86012 8.801 5.52012 8.801C6.18012 8.801 6.71012 9.34 6.71012 10C6.71012 10.66 6.18012 11.2 5.52012 11.2ZM8.80012 10C8.80012 10.66 9.34012 11.2 10.0001 11.2C10.6601 11.2 11.1901 10.66 11.1901 10C11.1901 9.34 10.6601 8.801 10.0001 8.801C9.34012 8.801 8.80012 9.34 8.80012 10ZM13.2801 10C13.2801 10.66 13.8101 11.2 14.4801 11.2C15.1401 11.2 15.6701 10.66 15.6701 10C15.6701 9.34 15.1401 8.801 14.4801 8.801C13.8101 8.801 13.2801 9.34 13.2801 10Z" fill="#B9BBC3"/>
</svg>
