<svg width="82" height="82" viewBox="0 0 82 82" xmlns="http://www.w3.org/2000/svg">
<path d="M8.81747 70.3811L5.81824 65.8829L8.81747 61.384L10.9226 62.7885L8.8601 65.8829L10.9226 68.9767L8.81747 70.3811Z"/>
<path d="M21.0462 70.3811L18.941 68.9767L21.0036 65.8829L18.941 62.7885L21.0462 61.384L24.0454 65.8829L21.0462 70.3811Z"/>
<path d="M12.465 69.278L14.9983 61.686L17.3976 62.4868L14.8642 70.0788L12.465 69.278Z"/>
<path d="M44.0372 64.6174H46.5681V67.1483H44.0372V64.6174Z"/>
<path d="M50.3644 64.6174H52.8953V67.1483H50.3644V64.6174Z"/>
<path d="M37.7101 64.6174H40.241V67.1483H37.7101V64.6174Z"/>
<path d="M77.4579 42.0268L60.4876 37.0311V32.3272L64.2839 29.7963V26.3355L64.9253 25.5508C66.145 24.0579 66.8123 22.1894 66.8148 20.2616C66.8123 18.6533 65.799 17.2198 64.2839 16.6816V6.40609C64.2975 2.89525 61.467 0.0362745 57.9567 0.0146484H33.4401L35.5379 2.16552C37.7462 4.41834 38.9801 7.44847 38.9752 10.6022V16.6766C37.4577 17.2154 36.4437 18.6514 36.4443 20.2616H6.07385C3.2779 20.2616 1.0121 22.5274 1.0121 25.3234C1.0121 28.1187 3.2779 30.3851 6.07385 30.3851H21.2591C23.3556 30.3851 25.0554 32.0849 25.0554 34.1814C25.0554 36.2779 23.3556 37.9777 21.2591 37.9777H14.2992C11.1541 37.9777 8.60472 40.5272 8.60472 43.6722C8.60472 46.8173 11.1541 49.3667 14.2992 49.3667H26.3208C27.7185 49.3667 28.8517 50.4999 28.8517 51.8976V53.163H14.9319C8.26797 53.1568 2.53519 57.8744 1.25802 64.4141C-0.0191576 70.9539 3.51702 77.4819 9.69282 79.9837C15.8686 82.4861 22.9515 80.2599 26.5865 74.6754H33.6471C37.2822 80.2599 44.365 82.4861 50.5408 79.9837C56.7166 77.4819 60.2534 70.9539 58.9756 64.4141C57.6985 57.8744 51.9657 53.1568 45.3024 53.163H31.3826V51.8976C31.3826 49.1016 29.1162 46.8358 26.3208 46.8358H14.2992C12.5518 46.8358 11.1356 45.419 11.1356 43.6722C11.1356 41.9248 12.5518 40.5086 14.2992 40.5086H21.2591C24.7532 40.5086 27.5863 37.6756 27.5863 34.1814C27.5863 30.6867 24.7532 27.8543 21.2591 27.8543H6.07385C4.67556 27.8543 3.54297 26.721 3.54297 25.3234C3.54297 23.9257 4.67556 22.7925 6.07385 22.7925H36.8577C37.171 23.7972 37.6715 24.7333 38.332 25.552L38.9752 26.3355V29.7938L42.7715 32.3247V37.0287L25.8006 42.0268L26.5142 44.4538L38.1003 41.0474C39.8989 47.0156 45.3963 51.0999 51.6296 51.0999C57.8622 51.0999 63.3596 47.0156 65.1582 41.0474L76.7443 44.4538C78.3539 44.9358 79.4593 46.4126 79.4692 48.092V67.0828H71.8765V55.6939H69.3457V81.0026H71.8765V69.6137H79.4692V81.0026H82V48.092C81.9858 45.2911 80.142 42.8288 77.4579 42.0268ZM45.3024 55.6939C50.8306 55.6889 55.5637 59.6545 56.5269 65.0981C57.4902 70.5417 54.4051 75.8914 49.2111 77.7834C44.0166 79.676 38.2133 77.5647 35.4495 72.7773L35.0837 72.1445H25.1499L24.7841 72.7773C22.0203 77.5647 16.2171 79.676 11.0225 77.7834C5.82854 75.8914 2.74342 70.5417 3.70671 65.0981C4.67 59.6545 9.40303 55.6889 14.9319 55.6939H45.3024ZM57.9567 2.54552C60.0699 2.56529 61.7685 4.29291 61.7531 6.40609V9.54435C60.3622 8.29621 58.5598 7.60603 56.6913 7.60727C54.8185 7.60233 53.013 8.2993 51.6296 9.56103C50.2461 8.2993 48.44 7.60233 46.5678 7.60727C44.682 7.60541 42.8642 8.30857 41.4702 9.57772C41.3003 7.066 40.4791 4.64264 39.0877 2.54552H57.9567ZM52.895 16.4653V18.9962H50.3641V16.4653H41.5061V15.1999C41.5061 12.4039 43.7719 10.1381 46.5678 10.1381C48.1681 10.1375 49.6733 10.9012 50.6168 12.1945L51.6296 13.5545L52.6417 12.192C53.5858 10.9 55.091 10.1369 56.6913 10.1381C59.4866 10.1381 61.7531 12.4039 61.7531 15.1999V16.4653H52.895ZM59.2222 18.9962V21.5271H55.4259V18.9962H59.2222ZM47.8333 18.9962V21.5271H44.0369V18.9962H47.8333ZM41.5061 28.4425V25.4358L40.2907 23.9492C39.4405 22.9081 38.9758 21.6055 38.9752 20.2616C38.9752 19.5628 39.5412 18.9962 40.2406 18.9962H41.5061V24.0579H50.3641V21.5271H52.895V24.0579H61.7531V18.9962H63.0185C63.7173 18.9962 64.2839 19.5628 64.2839 20.2616C64.2827 21.6062 63.8174 22.9093 62.9666 23.9504L61.7531 25.4358V28.4425L55.0459 32.916H48.2126L41.5061 28.4425ZM57.9567 34.0103V37.8863C57.6132 41.1228 54.884 43.5783 51.6296 43.5783C48.3751 43.5783 45.6453 41.1228 45.3024 37.8863V34.014L47.4533 35.4469H55.8053L57.9567 34.0103ZM51.6296 48.5628C46.5054 48.603 41.9757 45.2429 40.5273 40.3276L43.0582 39.5849C44.1241 43.4411 47.6331 46.1123 51.6345 46.1123C55.6353 46.1123 59.1443 43.4411 60.2102 39.5849L62.7411 40.3276C61.2927 45.2466 56.7574 48.6085 51.6296 48.564V48.5628Z"/>
<path d="M26.3212 14H35.1792V16.5309H26.3212V14Z"/>
<path d="M30.1174 24.1233H35.1792V26.6542H30.1174V24.1233Z"/>
</svg>
