<svg width="80" height="78" viewBox="0 0 80 78" xmlns="http://www.w3.org/2000/svg">
<path d="M77.6562 0H68.2812C66.9869 0 65.9375 1.04868 65.9375 2.34219V4.68439H46.6281C45.6606 1.95839 43.0555 0 40 0C36.9445 0 34.3394 1.95839 33.3719 4.68439H14.0625V2.34219C14.0625 1.04868 13.0131 0 11.7188 0H2.34375C1.04937 0 0 1.04868 0 2.34219V11.711C0 13.0045 1.04937 14.0532 2.34375 14.0532H11.7188C13.0131 14.0532 14.0625 13.0045 14.0625 11.711V9.33754H23.8089C15.3533 14.6893 10.2133 23.7303 9.595 33.3282C6.83406 34.2769 4.84375 36.8964 4.84375 39.9734C4.84375 43.8479 7.99797 47 11.875 47C15.752 47 18.9062 43.8479 18.9062 39.9734C18.9062 36.9473 16.982 34.3618 14.2922 33.3747C15.1244 22.3434 23.0731 12.8424 33.7025 10.1467C34.8547 12.4595 37.2439 14.0532 40 14.0532C42.7561 14.0532 45.1453 12.4595 46.2975 10.1468C56.927 12.8426 64.8756 22.3436 65.7078 33.3748C63.018 34.3618 61.0938 36.9473 61.0938 39.9734C61.0938 43.8479 64.248 47 68.125 47C72.002 47 75.1562 43.8479 75.1562 39.9734C75.1562 36.8964 73.1659 34.2769 70.405 33.3282C69.7855 23.7111 64.6302 14.7101 56.1911 9.36877H65.9375V11.711C65.9375 13.0045 66.9869 14.0532 68.2812 14.0532H77.6562C78.9506 14.0532 80 13.0045 80 11.711V2.34219C80 1.04868 78.9506 0 77.6562 0ZM9.375 9.36877H4.6875V4.68439H9.375V9.36877ZM11.875 42.3156C10.5827 42.3156 9.53125 41.2649 9.53125 39.9734C9.53125 38.6819 10.5827 37.6312 11.875 37.6312C13.1673 37.6312 14.2188 38.6819 14.2188 39.9734C14.2188 41.2649 13.1673 42.3156 11.875 42.3156ZM40 9.36877C38.7077 9.36877 37.6562 8.31806 37.6562 7.02658C37.6562 5.73509 38.7077 4.68439 40 4.68439C41.2923 4.68439 42.3438 5.73509 42.3438 7.02658C42.3438 8.31806 41.2923 9.36877 40 9.36877ZM68.125 37.6312C69.4173 37.6312 70.4688 38.6819 70.4688 39.9734C70.4688 41.2649 69.4173 42.3156 68.125 42.3156C66.8327 42.3156 65.7812 41.2649 65.7812 39.9734C65.7812 38.6819 66.8327 37.6312 68.125 37.6312ZM75.3125 9.36877H70.625V4.68439H75.3125V9.36877Z"/>
<path d="M60.5987 45.6004L41.4876 17.0576C41.4869 17.0567 41.4861 17.0557 41.4855 17.0546C41.4786 17.0445 41.4712 17.0348 41.4642 17.0248C41.4313 16.9774 41.3968 16.9317 41.3608 16.8872C40.3541 15.6417 38.4373 15.7258 37.5359 17.0248C37.5289 17.0348 37.5214 17.0445 37.5145 17.0546C37.5139 17.0557 37.5131 17.0565 37.5124 17.0576L18.4013 45.6006C17.7695 46.5439 17.8946 47.8001 18.6998 48.6019C23.4659 53.3475 26.4995 59.5508 27.3259 66.1877C26.955 66.4862 26.5968 66.8059 26.2573 67.1519C24.0135 69.4373 22.7778 72.4452 22.7778 75.6214C22.7778 76.935 23.8474 78 25.1667 78H53.8334C55.1527 78 56.2222 76.935 56.2222 75.6214C56.2222 72.4452 54.9866 69.4373 52.7429 67.1518C52.4032 66.8058 52.0452 66.4861 51.6741 66.1875C52.5004 59.5503 55.5339 53.347 60.3001 48.6019C61.1055 47.8001 61.2305 46.5438 60.5987 45.6004ZM39.5 44.5413C40.8172 44.5413 41.8889 45.6083 41.8889 46.9199C41.8889 48.2314 40.8172 49.2985 39.5 49.2985C38.1828 49.2985 37.1111 48.2314 37.1111 46.9199C37.1111 45.6083 38.1828 44.5413 39.5 44.5413ZM27.9629 73.2428C28.9569 70.415 31.6512 68.3271 34.7222 68.3271H44.2778C47.3488 68.3271 50.0431 70.415 51.0371 73.2428H27.9629ZM47.1835 63.932C46.2438 63.6932 45.2698 63.57 44.2778 63.57H34.7222C33.7302 63.57 32.7562 63.6932 31.8165 63.9321C30.6985 57.5212 27.7951 51.5285 23.4315 46.6638L37.1111 26.2329V40.1934C34.3306 41.1753 32.3333 43.8192 32.3333 46.9201C32.3333 50.8547 35.5483 54.0558 39.5 54.0558C43.4517 54.0558 46.6667 50.8547 46.6667 46.9201C46.6667 43.8192 44.6694 41.1753 41.8889 40.1934V26.2329L55.5686 46.6638C51.2049 51.528 48.3013 57.5209 47.1835 63.932Z"/>
</svg>
