<svg width="65" height="81" viewBox="0 0 65 81" xmlns="http://www.w3.org/2000/svg">
<path d="M29.0426 69.1489H17.9787C17.612 69.1489 17.2602 69.2946 17.0008 69.554C16.7415 69.8133 16.5958 70.1651 16.5958 70.5319V74.6808C16.5958 75.0476 16.7415 75.3994 17.0008 75.6588C17.2602 75.9181 17.612 76.0638 17.9787 76.0638H29.0426C29.4094 76.0638 29.7611 75.9181 30.0205 75.6588C30.2798 75.3994 30.4256 75.0476 30.4256 74.6808V70.5319C30.4256 70.1651 30.2798 69.8133 30.0205 69.554C29.7611 69.2946 29.4094 69.1489 29.0426 69.1489ZM27.6596 73.2979H19.3617V71.9149H27.6596V73.2979Z"/>
<path d="M39.4149 26.2766C36.8164 26.2766 34.2762 27.0472 32.1157 28.4908C29.9551 29.9345 28.2711 31.9864 27.2767 34.3871C26.2823 36.7878 26.0221 39.4295 26.5291 41.9781C27.036 44.5266 28.2873 46.8677 30.1247 48.7051C31.9622 50.5425 34.3032 51.7938 36.8518 52.3008C39.4003 52.8077 42.042 52.5475 44.4427 51.5531C46.8434 50.5587 48.8954 48.8747 50.339 46.7142C51.7827 44.5536 52.5532 42.0134 52.5532 39.4149C52.5493 35.9316 51.1638 32.5921 48.7007 30.1291C46.2377 27.666 42.8982 26.2806 39.4149 26.2766ZM28.9043 39.4149C28.9029 37.5694 29.3877 35.7562 30.3101 34.1578C31.2324 32.5593 32.5596 31.2321 34.1581 30.3098C35.7566 29.3876 37.5698 28.9027 39.4153 28.9042C41.2608 28.9057 43.0732 29.3934 44.6702 30.3183V48.5115C43.0732 49.4364 41.2608 49.9241 39.4153 49.9256C37.5698 49.9271 35.7566 49.4423 34.1581 48.52C32.5596 47.5977 31.2324 46.2705 30.3101 44.6721C29.3877 43.0736 28.9029 41.2604 28.9043 39.4149ZM47.2979 46.3559V32.4739C48.991 34.3897 49.9256 36.8582 49.9256 39.4149C49.9256 41.9716 48.991 44.4401 47.2979 46.3559Z"/>
<path d="M63.8365 36.2316L56.5987 35.4747C56.1837 33.9061 55.5567 32.4008 54.7349 31L59.3141 25.3689C59.5166 25.1206 59.6194 24.8064 59.6026 24.4871C59.5858 24.1678 59.4506 23.866 59.2231 23.6401L55.5457 19.9804C55.3188 19.7541 55.0156 19.6195 54.6947 19.6028C54.3738 19.586 54.0581 19.6883 53.8086 19.8899L48.1504 24.4471C47.71 24.1916 47.2582 23.9571 46.8 23.7404V4.52814C46.7987 3.32761 46.3189 2.17663 45.4659 1.32773C44.6129 0.478824 43.4563 0.00132696 42.25 0H4.55C3.34367 0.00132696 2.18714 0.478824 1.33414 1.32773C0.481136 2.17663 0.00133336 3.32761 0 4.52814V75.6846C0.00133336 76.8852 0.481136 78.0361 1.33414 78.885C2.18714 79.7339 3.34367 80.2114 4.55 80.2128H42.25C43.4563 80.2114 44.6129 79.7339 45.4659 78.885C46.3189 78.0361 46.7987 76.8852 46.8 75.6846V56.4724C47.2582 56.2557 47.71 56.0212 48.1504 55.7657L53.8086 60.3229C54.0581 60.5244 54.3738 60.6267 54.6947 60.61C55.0156 60.5933 55.3188 60.4587 55.5457 60.2324L59.2231 56.5726C59.4506 56.3468 59.5858 56.045 59.6026 55.7257C59.6194 55.4063 59.5166 55.0921 59.3141 54.8439L54.7349 49.2128C55.5567 47.812 56.1837 46.3066 56.5987 44.738L63.8365 43.9812C64.1559 43.9474 64.4514 43.7972 64.6662 43.5595C64.881 43.3219 64.9999 43.0135 65 42.6939V37.5189C64.9999 37.1992 64.881 36.8909 64.6662 36.6532C64.4514 36.4156 64.1559 36.2654 63.8365 36.2316ZM29.5344 2.58751L28.8844 5.17502H17.9156L17.2656 2.58751H29.5344ZM44.2 75.6846C44.1996 76.1992 43.994 76.6925 43.6284 77.0564C43.2628 77.4202 42.767 77.6248 42.25 77.6253H4.55C4.03296 77.6248 3.53722 77.4202 3.17162 77.0564C2.80601 76.6925 2.60043 76.1992 2.6 75.6846V4.52814C2.60043 4.01358 2.80601 3.52023 3.17162 3.15638C3.53722 2.79253 4.03296 2.58794 4.55 2.58751H14.5844L15.639 6.78251C15.7093 7.0624 15.8716 7.31087 16.1001 7.48844C16.3285 7.66601 16.6101 7.76248 16.9 7.76253H29.9C30.1899 7.76248 30.4715 7.66601 30.6999 7.48844C30.9284 7.31087 31.0907 7.0624 31.161 6.78251L32.2156 2.58751H42.25C42.767 2.58794 43.2628 2.79253 43.6284 3.15638C43.994 3.52023 44.1996 4.01358 44.2 4.52814V22.7458C44.0196 22.6908 43.8376 22.6407 43.654 22.5922L42.8935 15.3892C42.8595 15.0714 42.7086 14.7772 42.4698 14.5635C42.231 14.3497 41.9212 14.2314 41.6 14.2313H36.4C36.0788 14.2314 35.769 14.3497 35.5302 14.5635C35.2914 14.7772 35.1405 15.0714 35.1065 15.3892L34.346 22.5922C32.7698 23.0053 31.2572 23.6293 29.8496 24.4471L24.1914 19.8899C23.9419 19.6883 23.6262 19.586 23.3053 19.6028C22.9844 19.6195 22.6812 19.7541 22.4542 19.9804L18.7769 23.6401C18.5494 23.866 18.4142 24.1678 18.3974 24.4871C18.3806 24.8064 18.4834 25.1206 18.6859 25.3689L23.2651 31C22.4433 32.4008 21.8163 33.9061 21.4012 35.4747L14.1635 36.2316C13.8441 36.2654 13.5486 36.4156 13.3338 36.6532C13.119 36.8909 13.0001 37.1992 13 37.5189V42.6939C13.0001 43.0135 13.119 43.3219 13.3338 43.5595C13.5486 43.7972 13.8441 43.9474 14.1635 43.9812L21.4012 44.738C21.8163 46.3066 22.4433 47.812 23.2651 49.2128L18.6859 54.8439C18.4834 55.0921 18.3806 55.4063 18.3974 55.7257C18.4142 56.045 18.5494 56.3468 18.7769 56.5726L22.4542 60.2324C22.6812 60.4587 22.9844 60.5933 23.3053 60.61C23.6262 60.6267 23.9419 60.5244 24.1914 60.3229L29.8496 55.7657C31.2572 56.5835 32.7698 57.2075 34.346 57.6206L35.1065 64.8236C35.1405 65.1414 35.2914 65.4355 35.5302 65.6493C35.769 65.8631 36.0788 65.9814 36.4 65.9815H41.6C41.9212 65.9814 42.231 65.8631 42.4698 65.6493C42.7086 65.4355 42.8595 65.1414 42.8935 64.8236L43.654 57.6206C43.8376 57.5721 44.0196 57.5219 44.2 57.467V75.6846ZM62.4 41.5295L55.4092 42.2621C55.1353 42.2906 54.8775 42.4049 54.6731 42.5886C54.4686 42.7723 54.3281 43.0159 54.2718 43.2842C53.8765 45.1806 53.125 46.9857 52.0569 48.6047C51.9056 48.8339 51.8315 49.105 51.8452 49.3788C51.8589 49.6527 51.9598 49.9151 52.1332 50.1281L56.5565 55.5667L54.535 57.5785L49.0701 53.1765C48.8561 53.0041 48.5925 52.9036 48.3175 52.8897C48.0424 52.8757 47.7699 52.949 47.5394 53.0989C45.913 54.1631 44.099 54.9116 42.1931 55.3048C41.9235 55.3608 41.6788 55.5007 41.4942 55.7042C41.3096 55.9076 41.1947 56.1642 41.1661 56.4368L40.43 63.394H37.57L36.8339 56.4368C36.8053 56.1642 36.6904 55.9076 36.5058 55.7042C36.3212 55.5007 36.0765 55.3608 35.8069 55.3048C33.901 54.9116 32.087 54.1631 30.4606 53.0989C30.23 52.949 29.9576 52.8757 29.6826 52.8897C29.4075 52.9036 29.1439 53.0041 28.9299 53.1765L23.465 57.5785L21.4435 55.5667L25.8667 50.1281C26.0402 49.9151 26.1411 49.6527 26.1548 49.3788C26.1685 49.105 26.0944 48.8339 25.9431 48.6047C24.8749 46.9857 24.1235 45.1806 23.7283 43.2842C23.6719 43.0159 23.5314 42.7723 23.3269 42.5886C23.1225 42.4049 22.8647 42.2906 22.5907 42.2621L15.6 41.5295V38.6833L22.5907 37.9507C22.8647 37.9222 23.1225 37.8079 23.3269 37.6242C23.5314 37.4405 23.6719 37.1969 23.7283 36.9286C24.1234 35.0319 24.8754 33.2266 25.9447 31.608C26.0954 31.3786 26.169 31.1074 26.155 30.8337C26.141 30.5599 26.0401 30.2977 25.8667 30.0846L21.4435 24.646L23.465 22.6342L28.9299 27.0362C29.1439 27.2088 29.4076 27.3092 29.6828 27.3229C29.9579 27.3365 30.2304 27.2628 30.4606 27.1122C32.0874 26.0492 33.9013 25.3014 35.8069 24.908C36.0765 24.8519 36.3212 24.7121 36.5058 24.5086C36.6904 24.3051 36.8053 24.0486 36.8339 23.776L37.57 16.8188H40.43L41.1661 23.776C41.1947 24.0486 41.3096 24.3051 41.4942 24.5086C41.6788 24.7121 41.9235 24.8519 42.1931 24.908C44.0987 25.3014 45.9126 26.0492 47.5394 27.1122C47.7696 27.2628 48.042 27.3365 48.3172 27.3229C48.5924 27.3092 48.8561 27.2088 49.0701 27.0362L54.535 22.6342L56.5565 24.646L52.1332 30.0846C51.9599 30.2977 51.859 30.5599 51.845 30.8337C51.831 31.1074 51.9046 31.3786 52.0552 31.608C53.1246 33.2266 53.8766 35.0319 54.2718 36.9286C54.3281 37.1969 54.4686 37.4405 54.6731 37.6242C54.8775 37.8079 55.1353 37.9222 55.4092 37.9507L62.4 38.6833V41.5295Z"/>
</svg>
