<svg width="59" height="67" viewBox="0 0 59 67" xmlns="http://www.w3.org/2000/svg">
<path d="M45.9062 35.4752C44.7595 34.5996 43.1212 34.8215 42.2478 35.9716C40.8028 37.8736 39.0962 39.4792 37.4457 41.0316C34.9024 43.4244 32.4698 45.7145 31.5087 48.6797H19.5387C18.5775 45.7145 16.1449 43.4244 13.6021 41.0316C9.48176 37.1555 5.2217 33.1469 5.2217 25.2907C5.2217 19.9684 7.3219 14.9467 11.1353 11.1518C14.9732 7.33237 20.0414 5.23454 25.4212 5.23454C25.4722 5.23454 25.5237 5.23454 25.5747 5.23505H25.5945C27.0273 5.23505 28.1939 4.07623 28.2046 2.63729C28.2153 1.19171 27.0548 0.0114204 25.6134 0.000685896C18.7815 -0.0488974 12.3264 2.59129 7.45651 7.43716C2.64833 12.2222 0 18.5627 0 25.2912C0 35.4134 5.79634 40.8665 10.0289 44.8485C12.9561 47.6027 14.7499 49.3938 14.7499 51.4278V59.1485C14.7499 63.4781 18.2635 67 22.5816 67H28.4555C32.7742 67 36.2873 63.4781 36.2873 59.1485V51.6276C36.2924 51.5617 36.2975 51.4953 36.2975 51.4278C36.2975 49.3938 38.0912 47.6027 41.0185 44.8485C42.7403 43.2286 44.6927 41.392 46.4008 39.1434C47.2747 37.9933 47.0529 36.3514 45.9062 35.4752ZM28.4555 61.7656H22.5816C21.1423 61.7656 19.9711 60.5915 19.9711 59.1485V53.9141H31.0661V59.1485C31.0661 60.5915 29.8954 61.7656 28.4555 61.7656ZM22.444 15.8576C18.3109 17.1478 15.5336 20.9248 15.5336 25.256C15.5336 26.7016 14.3649 27.8731 12.923 27.8731C11.481 27.8731 10.3124 26.7016 10.3124 25.256C10.3124 18.6205 14.5643 12.8351 20.8924 10.8599C22.2691 10.4306 23.7325 11.2009 24.1608 12.581C24.5891 13.9612 23.8207 15.4283 22.444 15.8576ZM57.9154 16.9955L55.4033 15.1803C55.4084 15.0495 55.4109 14.9181 55.4109 14.7872C55.4109 14.6288 55.4058 14.4698 55.3987 14.3113C55.3961 14.2592 55.3931 14.2076 55.39 14.1554C55.3869 14.1059 55.3854 14.0563 55.3818 14.0072L57.9736 12.0223C58.9949 11.2408 59.2967 9.83045 58.6854 8.69719L57.5106 6.52012C56.8962 5.38073 55.543 4.86394 54.3284 5.30354L51.2421 6.41993C50.8541 6.12704 50.4452 5.86532 50.0215 5.62967C49.9827 5.60871 49.945 5.58673 49.9062 5.56577C49.8007 5.50903 49.6941 5.45485 49.587 5.40169C49.5294 5.37306 49.4723 5.34495 49.4142 5.31735C49.3652 5.29434 49.3168 5.26827 49.2673 5.24578L48.7121 2.15373C48.4882 0.906987 47.4063 0.000174727 46.1428 0.000174727H43.6627C42.361 0.000174727 41.2581 0.961682 41.0776 2.25443L40.6595 5.24834C39.8906 5.59747 39.1681 6.0386 38.5042 6.56357L35.475 5.61536C34.2549 5.23351 32.9384 5.79324 32.3642 6.93826L31.2139 9.23289C30.6271 10.403 30.9937 11.8281 32.0716 12.5678L34.5389 14.2613C34.5307 14.4356 34.5256 14.6109 34.5256 14.7872C34.5256 14.9472 34.5307 15.1072 34.5379 15.2672C34.5404 15.3204 34.544 15.3736 34.547 15.4267C34.5506 15.4824 34.5527 15.5382 34.5567 15.5939L32.0558 17.5803C31.0309 18.3946 30.7647 19.8432 31.4332 20.9698L32.6569 23.0324C33.2963 24.1094 34.6077 24.5812 35.784 24.157L38.6521 23.1234C39.2777 23.6003 39.9538 24.0046 40.6687 24.3287L41.2239 27.4208C41.4478 28.667 42.5298 29.5743 43.7932 29.5743H46.1428C47.4256 29.5743 48.5178 28.6399 48.7207 27.3707L49.2016 24.3594C50.0745 23.9719 50.8888 23.4659 51.6255 22.8525L54.5931 23.7327C55.8045 24.092 57.0986 23.5298 57.6661 22.3985L58.7216 20.2941C59.2972 19.145 58.9556 17.7469 57.9154 16.9955ZM39.7555 14.4974C39.756 14.4851 39.7575 14.4734 39.758 14.4611C39.7636 14.3742 39.7708 14.2873 39.781 14.2004C39.7815 14.1928 39.7825 14.1851 39.7835 14.1774C39.7942 14.0859 39.8075 13.9944 39.8233 13.9029C39.8238 13.8978 39.8248 13.8922 39.8259 13.8871C39.8417 13.7966 39.86 13.7061 39.8804 13.6162C40.0986 12.6623 40.5774 11.8071 41.2377 11.1303C41.2556 11.1119 41.2734 11.093 41.2918 11.0751C41.3438 11.023 41.3968 10.9724 41.4508 10.9228C41.4631 10.9116 41.4758 10.9003 41.4886 10.8896C41.5972 10.792 41.7094 10.6984 41.8261 10.6105C41.8358 10.6028 41.845 10.5957 41.8547 10.5885C41.9189 10.5405 41.9842 10.4934 42.051 10.4485V10.4479C42.18 10.361 42.3131 10.2798 42.4497 10.2041C42.4655 10.1954 42.4813 10.1862 42.4971 10.1775C42.5624 10.1423 42.6287 10.108 42.6955 10.0758C42.7174 10.0651 42.7398 10.0554 42.7618 10.0446C42.8678 9.99504 42.9754 9.94955 43.0845 9.90712C43.1294 9.88923 43.1742 9.87185 43.2196 9.85601C43.2716 9.8376 43.3236 9.81971 43.3767 9.80285C43.4491 9.77933 43.5225 9.75786 43.5959 9.73793C44.0334 9.61831 44.4933 9.5534 44.968 9.5534C45.4524 9.5534 45.9205 9.62087 46.3656 9.74508C46.4395 9.76553 46.5124 9.78751 46.5854 9.81153C46.6267 9.82483 46.668 9.83863 46.7093 9.85345C46.774 9.87645 46.8377 9.90099 46.9015 9.92655C46.9571 9.94904 47.0121 9.97204 47.0662 9.99607C47.132 10.0247 47.1967 10.0549 47.261 10.086C47.3058 10.108 47.3497 10.131 47.3935 10.154C47.445 10.1811 47.4955 10.2097 47.5465 10.2389C47.5868 10.2619 47.6276 10.2844 47.6673 10.3084C47.7469 10.357 47.8254 10.4076 47.9024 10.4602C47.9386 10.4853 47.9738 10.5108 48.0089 10.5364C48.063 10.5752 48.116 10.6151 48.1685 10.656C48.2002 10.681 48.2323 10.7051 48.2634 10.7306C48.3404 10.794 48.4158 10.8589 48.4898 10.9269C48.5117 10.9463 48.5321 10.9673 48.5535 10.9877C48.6132 11.044 48.6713 11.1017 48.7279 11.1615C49.3612 11.8209 49.8236 12.6455 50.0439 13.5635C50.0617 13.6387 50.0786 13.7143 50.0928 13.79C50.099 13.8191 50.1035 13.8487 50.1091 13.8784C50.1214 13.9494 50.1321 14.02 50.1418 14.091C50.1459 14.1217 50.1499 14.1524 50.1535 14.1836C50.1622 14.2567 50.1683 14.3298 50.1739 14.4034C50.1759 14.431 50.1785 14.4586 50.18 14.4867C50.1856 14.5869 50.1892 14.6871 50.1892 14.7878C50.1892 14.9682 50.18 15.1497 50.1617 15.3296C50.1606 15.3373 50.1591 15.3449 50.1586 15.3526C50.1499 15.4334 50.1397 15.5141 50.127 15.5944C50.1224 15.6245 50.1163 15.6547 50.1112 15.6849C50.1015 15.7411 50.0918 15.7968 50.0806 15.8525C49.894 16.7532 49.4754 17.569 48.891 18.2361C48.8156 18.3225 48.7381 18.4068 48.658 18.4871C48.6407 18.505 48.6218 18.5218 48.604 18.5392C48.5413 18.6006 48.4765 18.6599 48.4112 18.7176C48.3761 18.7483 48.3419 18.779 48.3062 18.8086C48.2338 18.8694 48.1594 18.9282 48.0839 18.985C48.0375 19.0197 47.9896 19.0529 47.9422 19.0862C47.8998 19.1153 47.8575 19.1439 47.8152 19.172C47.7382 19.2221 47.6597 19.2707 47.5801 19.3167C47.5312 19.3453 47.4822 19.374 47.4323 19.4005C47.3803 19.4287 47.3272 19.4557 47.2742 19.4823C47.2161 19.5104 47.158 19.538 47.0988 19.5641C47.0386 19.5917 46.9775 19.6178 46.9158 19.6423C46.8403 19.673 46.7638 19.7021 46.6868 19.7292C46.6501 19.742 46.6129 19.7548 46.5757 19.767C46.4691 19.8013 46.361 19.8335 46.2514 19.8611C45.8409 19.9659 45.4111 20.0216 44.9685 20.0216C44.4821 20.0216 44.0125 19.9536 43.5658 19.8284C43.4934 19.8085 43.4221 19.787 43.3512 19.7635C43.3078 19.7492 43.2645 19.7348 43.2212 19.7195C43.1595 19.697 43.0983 19.6735 43.0371 19.649C42.9688 19.6214 42.901 19.5927 42.8342 19.5626C42.7811 19.5386 42.7281 19.5145 42.6756 19.489C42.6256 19.4644 42.5762 19.4384 42.5272 19.4123C42.4834 19.3893 42.4405 19.3648 42.3977 19.3407C42.3253 19.2993 42.2539 19.2564 42.1841 19.2119C42.1336 19.1802 42.0831 19.148 42.0342 19.1143C41.9893 19.0836 41.9449 19.0519 41.9011 19.0197C41.8577 18.988 41.8149 18.9553 41.7721 18.9221C41.7328 18.8914 41.6925 18.8607 41.6538 18.8291C41.5824 18.7698 41.5125 18.7089 41.4442 18.6461C41.4106 18.6154 41.3784 18.5832 41.3458 18.552C41.2984 18.506 41.2525 18.4595 41.2066 18.4119C40.5713 17.7495 40.1083 16.9209 39.8896 15.9977C39.8728 15.9272 39.857 15.8566 39.8432 15.785C39.8371 15.7539 39.832 15.7227 39.8264 15.6915C39.8146 15.6225 39.8039 15.553 39.7948 15.4835C39.7907 15.4523 39.7861 15.4211 39.7825 15.3894C39.7744 15.3168 39.7682 15.2442 39.7626 15.1711C39.7606 15.1435 39.758 15.1159 39.756 15.0878C39.7504 14.9881 39.7473 14.8874 39.7473 14.7872C39.7468 14.6906 39.7499 14.594 39.7555 14.4974ZM17.6215 31.0138C19.0635 31.0138 20.2321 32.1854 20.2321 33.6309C20.2321 35.0765 19.0635 36.2481 17.6215 36.2481C16.1801 36.2481 15.0109 35.0765 15.0109 33.6309C15.0109 32.1854 16.1801 31.0138 17.6215 31.0138Z"/>
</svg>
