<svg width="71" height="64" viewBox="0 0 71 64" xmlns="http://www.w3.org/2000/svg">
<path d="M20.2734 53.9211L15.3718 42.3106C15.1556 41.7986 14.654 41.4659 14.0984 41.4659C13.5427 41.4659 13.0411 41.7986 12.825 42.3106L7.92341 53.9211C7.62651 54.6243 7.95589 55.4351 8.65929 55.732C9.36228 56.0287 10.1734 55.6994 10.4702 54.9961L11.163 53.3551H17.0338L17.7265 54.9961C17.9493 55.524 18.4614 55.8411 19.0005 55.8411C19.1796 55.8411 19.3619 55.806 19.5375 55.7319C20.2409 55.435 20.5703 54.6243 20.2734 53.9211ZM12.33 50.5907L14.0984 46.4019L15.8668 50.5907H12.33Z"/>
<path d="M69.3864 0H1.3822C0.61881 0 0 0.61881 0 1.3822V27.9204C0 28.6838 0.61881 29.3026 1.3822 29.3026H69.3864C70.1497 29.3026 70.7686 28.6838 70.7686 27.9204V1.3822C70.7686 0.61881 70.1497 0 69.3864 0ZM25.4324 26.5382H2.7644V2.7644H25.4324V26.5382ZM68.0042 26.5382H28.1968V2.7644H68.0042V26.5382Z"/>
<path d="M50.9341 13.2692H35.4019C34.6385 13.2692 34.0197 13.888 34.0197 14.6514C34.0197 15.4148 34.6385 16.0336 35.4019 16.0336H50.9341C51.6974 16.0336 52.3163 15.4148 52.3163 14.6514C52.3163 13.888 51.6974 13.2692 50.9341 13.2692Z"/>
<path d="M61.8571 13.2692H56.865C56.1016 13.2692 55.4828 13.888 55.4828 14.6514C55.4828 15.4148 56.1016 16.0336 56.865 16.0336H61.8571C62.6205 16.0336 63.2393 15.4148 63.2393 14.6514C63.2393 13.888 62.6205 13.2692 61.8571 13.2692Z"/>
<path d="M57.7624 7.1875H35.4019C34.6385 7.1875 34.0197 7.80631 34.0197 8.5697C34.0197 9.33309 34.6385 9.9519 35.4019 9.9519H57.7624C58.5258 9.9519 59.1446 9.33309 59.1446 8.5697C59.1446 7.80631 58.5258 7.1875 57.7624 7.1875Z"/>
<path d="M62.8997 7.59248C62.6426 7.3354 62.286 7.1875 61.9225 7.1875C61.559 7.1875 61.2024 7.3354 60.9453 7.59248C60.6882 7.84957 60.5403 8.20618 60.5403 8.5697C60.5403 8.93322 60.6882 9.28982 60.9453 9.54691C61.2024 9.804 61.559 9.9519 61.9225 9.9519C62.286 9.9519 62.6426 9.804 62.8997 9.54691C63.1568 9.28982 63.3047 8.93322 63.3047 8.5697C63.3047 8.20618 63.1568 7.84957 62.8997 7.59248Z"/>
<path d="M47.1779 19.3508H35.4019C34.6385 19.3508 34.0197 19.9696 34.0197 20.733C34.0197 21.4964 34.6385 22.1152 35.4019 22.1152H47.1779C47.9413 22.1152 48.5601 21.4964 48.5601 20.733C48.5601 19.9696 47.9413 19.3508 47.1779 19.3508Z"/>
<path d="M52.8496 19.7558C52.5926 19.4987 52.2359 19.3508 51.8724 19.3508C51.5089 19.3508 51.1523 19.4987 50.8952 19.7558C50.6381 20.0129 50.4902 20.3695 50.4902 20.733C50.4902 21.0965 50.6381 21.4532 50.8952 21.7102C51.1523 21.9673 51.5089 22.1152 51.8724 22.1152C52.2359 22.1152 52.5926 21.9673 52.8496 21.7102C53.1067 21.4532 53.2546 21.0965 53.2546 20.733C53.2546 20.3695 53.1067 20.0129 52.8496 19.7558Z"/>
<path d="M57.8422 19.7558C57.5851 19.4987 57.2285 19.3508 56.865 19.3508C56.5015 19.3508 56.1449 19.4987 55.8878 19.7558C55.6307 20.0129 55.4828 20.3695 55.4828 20.733C55.4828 21.0965 55.6307 21.4532 55.8878 21.7102C56.1449 21.9673 56.5015 22.1152 56.865 22.1152C57.2285 22.1152 57.5851 21.9673 57.8422 21.7102C58.0993 21.4532 58.2472 21.0965 58.2472 20.733C58.2472 20.3695 58.0993 20.0129 57.8422 19.7558Z"/>
<path d="M62.8348 19.7558C62.5777 19.4987 62.2211 19.3508 61.8575 19.3508C61.4926 19.3508 61.1374 19.4987 60.8803 19.7558C60.6219 20.0129 60.4753 20.3695 60.4753 20.733C60.4753 21.0965 60.6219 21.4532 60.8803 21.7102C61.1374 21.9673 61.4926 22.1152 61.8575 22.1152C62.2211 22.1152 62.5777 21.9673 62.8348 21.7102C63.0918 21.4532 63.2397 21.0965 63.2397 20.733C63.2397 20.3695 63.0918 20.0129 62.8348 19.7558Z"/>
<path d="M69.3864 34.0021H1.3822C0.61881 34.0021 0 34.6209 0 35.3843V61.9225C0 62.6859 0.61881 63.3047 1.3822 63.3047H69.3864C70.1497 63.3047 70.7686 62.6859 70.7686 61.9225V35.3843C70.7686 34.6209 70.1497 34.0021 69.3864 34.0021ZM25.4324 60.5403H2.7644V36.7665H25.4324V60.5403ZM68.0042 60.5403H28.1968V36.7665H68.0042V60.5403Z"/>
<path d="M50.9341 47.2712H35.4019C34.6385 47.2712 34.0197 47.8901 34.0197 48.6534C34.0197 49.4168 34.6385 50.0356 35.4019 50.0356H50.9341C51.6974 50.0356 52.3163 49.4168 52.3163 48.6534C52.3163 47.8901 51.6974 47.2712 50.9341 47.2712Z"/>
<path d="M61.8571 47.2712H56.865C56.1016 47.2712 55.4828 47.8901 55.4828 48.6534C55.4828 49.4168 56.1016 50.0356 56.865 50.0356H61.8571C62.6205 50.0356 63.2393 49.4168 63.2393 48.6534C63.2393 47.8901 62.6205 47.2712 61.8571 47.2712Z"/>
<path d="M57.7624 41.1896H35.4019C34.6385 41.1896 34.0197 41.8084 34.0197 42.5718C34.0197 43.3352 34.6385 43.954 35.4019 43.954H57.7624C58.5258 43.954 59.1446 43.3352 59.1446 42.5718C59.1446 41.8084 58.5258 41.1896 57.7624 41.1896Z"/>
<path d="M62.8997 41.5946C62.6426 41.3375 62.286 41.1896 61.9225 41.1896C61.559 41.1896 61.2024 41.3375 60.9453 41.5946C60.6882 41.8516 60.5403 42.2083 60.5403 42.5718C60.5403 42.9353 60.6882 43.2919 60.9453 43.549C61.2024 43.8061 61.559 43.954 61.9225 43.954C62.286 43.954 62.6426 43.8061 62.8997 43.549C63.1568 43.2919 63.3047 42.9353 63.3047 42.5718C63.3047 42.2083 63.1568 41.8516 62.8997 41.5946Z"/>
<path d="M61.8571 53.3529H35.4019C34.6385 53.3529 34.0197 53.9717 34.0197 54.7351C34.0197 55.4985 34.6385 56.1173 35.4019 56.1173H61.8571C62.6205 56.1173 63.2393 55.4985 63.2393 54.7351C63.2393 53.9717 62.6205 53.3529 61.8571 53.3529Z"/>
<path d="M20.8615 18.7907L19.5498 17.8248C19.9536 16.9899 20.1801 16.0538 20.1801 15.066V12.8545C20.1801 9.34864 17.3278 6.49634 13.822 6.49634C10.3162 6.49634 7.46388 9.34864 7.46388 12.8545V15.066C7.46388 18.5718 10.3162 21.4241 13.822 21.4241C15.342 21.4241 16.7387 20.8874 17.8337 19.9942L19.2222 21.0166C19.4691 21.1984 19.7562 21.2859 20.0408 21.2859C20.4651 21.2859 20.8839 21.0911 21.1548 20.7232C21.6075 20.1085 21.4762 19.2432 20.8615 18.7907ZM17.4157 15.066C17.4157 15.4378 17.3589 15.7965 17.2537 16.134L15.7934 15.0588C15.1785 14.6061 14.3134 14.7376 13.8608 15.3522C13.4082 15.9669 13.5395 16.8323 14.1543 17.2848L15.4734 18.2562C14.9786 18.5133 14.4172 18.6597 13.822 18.6597C11.8405 18.6597 10.2283 17.0475 10.2283 15.066V12.8545C10.2283 10.8729 11.8405 9.26073 13.822 9.26073C15.8035 9.26073 17.4157 10.8729 17.4157 12.8545V15.066Z"/>
</svg>
