<svg width="90" height="90" viewBox="0 0 90 90" xmlns="http://www.w3.org/2000/svg">
<path d="M16.875 81.5666C16.097 81.5666 15.4688 80.9383 15.4688 80.1603C15.4688 73.1799 21.1473 67.5013 28.1277 67.5013C28.9057 67.5013 29.534 68.1303 29.534 68.9076C29.534 69.6856 28.9057 70.3138 28.1277 70.3138C22.6984 70.3138 18.2812 74.731 18.2812 80.1603C18.2812 80.9383 17.653 81.5666 16.875 81.5666Z"/>
<path d="M73.125 81.5652C72.347 81.5652 71.7188 80.9369 71.7188 80.1589C71.7188 74.7324 67.3016 70.3152 61.875 70.3152C61.097 70.3152 60.4688 69.6869 60.4688 68.9089C60.4688 68.1317 61.097 67.5027 61.875 67.5027C68.8541 67.5027 74.5312 73.1799 74.5312 80.1589C74.5312 80.9369 73.903 81.5652 73.125 81.5652Z"/>
<path d="M28.1277 70.3139C27.3518 70.3139 26.7215 69.6856 26.7215 68.9076C26.7215 68.1317 27.3505 67.5014 28.1277 67.5014L32.3451 67.5C33.1217 67.5 33.7514 68.1283 33.7514 68.9062C33.7514 69.6822 33.1231 70.3125 32.3451 70.3125L28.1277 70.3139Z"/>
<path d="M16.8764 88.5938C16.1005 88.5938 15.4701 87.9655 15.4701 87.1875L15.4688 80.1604C15.4688 79.3845 16.097 78.7542 16.875 78.7542C17.6509 78.7542 18.2812 79.3831 18.2812 80.1604L18.2826 87.1875C18.2826 87.9634 17.6543 88.5938 16.8764 88.5938Z"/>
<path d="M18.2826 90C16.7315 90 15.4701 88.7386 15.4701 87.1875C15.4701 86.4095 16.0991 85.7812 16.8764 85.7812C17.6543 85.7812 18.2826 86.4095 18.2826 87.1875V87.1902C19.0606 87.1902 19.6889 87.8178 19.6889 88.5951C19.6889 89.3717 19.0606 90 18.2826 90Z"/>
<path d="M71.7188 90C70.9408 90 70.3125 89.3717 70.3125 88.5938C70.3125 87.8158 70.9408 87.1875 71.7188 87.1875H71.7215C71.7215 86.4095 72.3491 85.7812 73.1264 85.7812C73.903 85.7812 74.5312 86.4095 74.5312 87.1875C74.5312 88.7386 73.2699 90 71.7188 90Z"/>
<path d="M73.125 88.5937C72.347 88.5937 71.7188 87.9654 71.7188 87.1874V80.1589C71.7188 79.3817 72.347 78.7527 73.125 78.7527C73.903 78.7527 74.5312 79.3817 74.5312 80.1589V87.1874C74.5312 87.9654 73.903 88.5937 73.125 88.5937Z"/>
<path d="M71.7188 90H18.2826C17.5053 90 16.8764 89.3717 16.8764 88.5938C16.8764 87.8158 17.5053 87.1875 18.2826 87.1875H71.7188C72.4967 87.1875 73.125 87.8158 73.125 88.5938C73.125 89.3717 72.4967 90 71.7188 90Z"/>
<path d="M35.1549 67.5C34.9441 67.5 34.7285 67.4519 34.528 67.3524C33.8331 67.0049 33.5516 66.1597 33.899 65.4655L35.3052 62.653C35.6541 61.9581 36.498 61.6793 37.1928 62.024C37.887 62.3714 38.1686 63.2167 37.8211 63.9116L36.4149 66.7241C36.1677 67.2157 35.6712 67.5 35.1549 67.5Z"/>
<path d="M54.8451 67.5001C54.3301 67.5001 53.8344 67.2158 53.5865 66.7241L52.1748 63.9116C51.8259 63.2181 52.1061 62.3729 52.8003 62.024C53.4952 61.6752 54.3391 61.9568 54.6879 62.6496L56.0996 65.4621C56.4484 66.1556 56.1683 67.0009 55.4741 67.3497C55.2729 67.452 55.0559 67.5001 54.8451 67.5001Z" />
<path d="M37.7058 73.1277C37.2189 73.1277 36.7479 72.8764 36.4877 72.426C36.0983 71.7524 36.329 70.8934 36.9999 70.5054L44.2955 66.2833C44.9691 65.8912 45.8267 66.1233 46.2167 66.7955C46.6061 67.4677 46.3754 68.3281 45.7045 68.7167L38.4089 72.9382C38.1864 73.0673 37.9447 73.1277 37.7058 73.1277Z" />
<path d="M52.3801 73.1278C52.1439 73.1278 51.9035 73.0688 51.6838 72.9424L44.3024 68.7209C43.6288 68.3357 43.3939 67.476 43.7791 66.8024C44.163 66.1288 45.0254 65.8926 45.6976 66.2792L53.0791 70.5007C53.7527 70.8866 53.9875 71.7456 53.6023 72.4192C53.3434 72.8731 52.8683 73.1278 52.3801 73.1278Z"/>
<path d="M29.5312 73.1278C29.1714 73.1278 28.811 72.9898 28.537 72.7158C27.987 72.1658 27.987 71.2773 28.537 70.7273L34.162 65.0995C34.712 64.5495 35.6005 64.5495 36.1505 65.0995C36.7005 65.6495 36.7005 66.538 36.1505 67.088L30.5255 72.7158C30.2515 72.9898 29.8911 73.1278 29.5312 73.1278Z"/>
<path d="M35.1562 78.75C34.7964 78.75 34.436 78.6119 34.162 78.338L28.537 72.7157C27.987 72.1657 27.987 71.2772 28.537 70.7272C29.087 70.1772 29.9755 70.1772 30.5255 70.7272L36.1505 76.3495C36.7005 76.8995 36.7005 77.788 36.1505 78.338C35.8765 78.6119 35.516 78.75 35.1562 78.75Z"/>
<path d="M32.3437 81.5625C31.9839 81.5625 31.6235 81.4245 31.3495 81.1505C30.7995 80.6005 30.7995 79.712 31.3495 79.162L34.162 76.3495C34.712 75.7995 35.6005 75.7995 36.1505 76.3495C36.7005 76.8995 36.7005 77.788 36.1505 78.338L33.338 81.1505C33.064 81.4245 32.7035 81.5625 32.3437 81.5625Z"/>
<path d="M40.7812 90C40.4214 90 40.061 89.862 39.787 89.588L31.3495 81.1505C30.7995 80.6005 30.7995 79.712 31.3495 79.162C31.8995 78.612 32.788 78.612 33.338 79.162L41.7755 87.5995C42.3255 88.1495 42.3255 89.038 41.7755 89.588C41.5015 89.862 41.141 90 40.7812 90Z"/>
<path d="M45.0014 90.0001C44.4589 90.0001 43.9426 89.6849 43.7118 89.1562L33.8681 66.6562C33.5557 65.9448 33.8805 65.1167 34.5939 64.8057C35.3039 64.4932 36.1347 64.8201 36.4444 65.5315L46.2881 88.0315C46.6006 88.7428 46.2758 89.5709 45.5624 89.882C45.3811 89.9637 45.1895 90.0001 45.0014 90.0001Z"/>
<path d="M60.4687 73.1278C60.1089 73.1278 59.7485 72.9898 59.4745 72.7158L53.8495 67.088C53.2995 66.538 53.2995 65.6495 53.8495 65.0995C54.3995 64.5495 55.288 64.5495 55.838 65.0995L61.463 70.7273C62.013 71.2773 62.013 72.1658 61.463 72.7158C61.189 72.9898 60.8285 73.1278 60.4687 73.1278Z"/>
<path d="M54.8437 78.75C54.4839 78.75 54.1235 78.6119 53.8495 78.338C53.2995 77.788 53.2995 76.8995 53.8495 76.3495L59.4745 70.7272C60.0245 70.1772 60.913 70.1772 61.463 70.7272C62.013 71.2772 62.013 72.1657 61.463 72.7157L55.838 78.338C55.564 78.6119 55.2035 78.75 54.8437 78.75Z"/>
<path d="M57.6562 81.5625C57.2964 81.5625 56.936 81.4245 56.662 81.1505L53.8495 78.338C53.2995 77.788 53.2995 76.8995 53.8495 76.3495C54.3995 75.7995 55.288 75.7995 55.838 76.3495L58.6505 79.162C59.2005 79.712 59.2005 80.6005 58.6505 81.1505C58.3765 81.4245 58.016 81.5625 57.6562 81.5625Z"/>
<path d="M49.2187 90C48.8589 90 48.4985 89.862 48.2245 89.588C47.6745 89.038 47.6745 88.1495 48.2245 87.5995L56.662 79.162C57.212 78.612 58.1005 78.612 58.6505 79.162C59.2005 79.712 59.2005 80.6005 58.6505 81.1505L50.213 89.588C49.939 89.862 49.5785 90 49.2187 90Z"/>
<path d="M44.9986 90.0001C44.8105 90.0001 44.6189 89.9637 44.4376 89.882C43.7242 89.5695 43.4008 88.7414 43.7119 88.0314L53.5556 65.5314C53.8653 64.818 54.6961 64.4891 55.4061 64.8057C56.1195 65.1181 56.443 65.9462 56.1319 66.6562L46.2881 89.1562C46.0574 89.6849 45.5411 90.0001 44.9986 90.0001Z"/>
<path d="M61.875 70.3152H57.6562C56.8783 70.3152 56.25 69.6869 56.25 68.9089C56.25 68.1317 56.8783 67.5027 57.6562 67.5027H61.875C62.653 67.5027 63.2812 68.1317 63.2812 68.9089C63.2812 69.6869 62.653 70.3152 61.875 70.3152Z"/>
<path d="M41.31 81.5625C41.1651 81.5625 41.0202 81.5399 40.8753 81.4939C40.1372 81.2529 39.7321 80.4598 39.971 79.7216L42.2548 72.6931C42.4958 71.955 43.2889 71.5499 44.027 71.7888C44.7652 72.0298 45.1703 72.8229 44.9313 73.5611L42.6475 80.5896C42.4532 81.1842 41.9032 81.5625 41.31 81.5625Z"/>
<path d="M48.69 81.5652C48.0968 81.5652 47.5468 81.1869 47.3524 80.5936L45.0687 73.5596C44.8283 72.8215 45.2335 72.0284 45.973 71.7874C46.7097 71.5471 47.5028 71.9508 47.7452 72.6917L50.029 79.7257C50.2693 80.4645 49.8642 81.2576 49.1247 81.4979C48.9798 81.5426 48.8349 81.5652 48.69 81.5652Z"/>
<path d="M46.4062 74.5339H43.5938C42.8158 74.5339 42.1875 73.9057 42.1875 73.1277C42.1875 72.3504 42.8158 71.7214 43.5938 71.7214H46.4062C47.1842 71.7214 47.8125 72.3504 47.8125 73.1277C47.8125 73.9057 47.1842 74.5339 46.4062 74.5339Z"/>
<path d="M46.4062 74.534C46.0773 74.534 45.7464 74.42 45.4807 74.1866C44.8956 73.675 44.8366 72.7858 45.3474 72.2029L48.1599 68.988C48.6715 68.4002 49.5607 68.3439 50.1443 68.8541C50.7294 69.3663 50.7884 70.2549 50.2776 70.8385L47.4651 74.0534C47.187 74.3727 46.7969 74.534 46.4062 74.534Z"/>
<path d="M43.5937 74.5339C43.2058 74.5339 42.8178 74.3739 42.5391 74.0588L39.7266 70.8721C39.2129 70.2898 39.2679 69.4013 39.8502 68.8863C40.4338 68.3747 41.3196 68.4283 41.8359 69.0106L44.6484 72.1966C45.162 72.7789 45.1071 73.6681 44.5248 74.1824C44.2577 74.4186 43.924 74.5339 43.5937 74.5339Z"/>
<path d="M53.432 64.6875H36.5625C35.7845 64.6875 35.1562 64.0592 35.1562 63.2812C35.1562 62.5033 35.7845 61.875 36.5625 61.875H53.432C54.2093 61.875 54.8383 62.5033 54.8383 63.2812C54.8383 64.0592 54.2093 64.6875 53.432 64.6875Z"/>
<path d="M40.7812 64.6875C40.0033 64.6875 39.375 64.0592 39.375 63.2813V57.3397C39.375 56.5624 40.0033 55.9335 40.7812 55.9335C41.5592 55.9335 42.1875 56.5624 42.1875 57.3397V63.2813C42.1875 64.0592 41.5592 64.6875 40.7812 64.6875Z"/>
<path d="M49.2133 64.6875C48.4353 64.6875 47.807 64.0592 47.807 63.2812V57.3411C47.807 56.5638 48.4353 55.9348 49.2133 55.9348C49.9905 55.9348 50.6195 56.5638 50.6195 57.3411V63.2812C50.6195 64.0592 49.9905 64.6875 49.2133 64.6875Z"/>
<path d="M45 59.0625C28.7169 59.0625 15.4688 45.8144 15.4688 29.5312C15.4688 13.2481 28.7169 0 45 0C61.2831 0 74.5312 13.2481 74.5312 29.5312C74.5312 45.8144 61.2831 59.0625 45 59.0625ZM45 2.8125C30.2666 2.8125 18.2812 14.7979 18.2812 29.5312C18.2812 44.2646 30.2666 56.25 45 56.25C59.7334 56.25 71.7188 44.2646 71.7188 29.5312C71.7188 14.7979 59.7334 2.8125 45 2.8125Z"/>
<path d="M45 54.8438C31.0432 54.8438 19.6875 43.488 19.6875 29.5312C19.6875 15.5745 31.0432 4.21875 45 4.21875C58.9568 4.21875 70.3125 15.5745 70.3125 29.5312C70.3125 43.488 58.9568 54.8438 45 54.8438ZM45 7.03125C32.5944 7.03125 22.5 17.1256 22.5 29.5312C22.5 41.9369 32.5944 52.0312 45 52.0312C57.4056 52.0312 67.5 41.9369 67.5 29.5312C67.5 17.1256 57.4056 7.03125 45 7.03125Z"/>
<path d="M63.2812 30.9375C62.5033 30.9375 61.875 30.3092 61.875 29.5312C61.875 20.2258 54.3054 12.6562 45 12.6562C44.222 12.6562 43.5938 12.028 43.5938 11.25C43.5938 10.472 44.222 9.84375 45 9.84375C55.8566 9.84375 64.6875 18.6747 64.6875 29.5312C64.6875 30.3092 64.0592 30.9375 63.2812 30.9375Z"/>
</svg>
