<svg width="58" height="66" viewBox="0 0 58 66" xmlns="http://www.w3.org/2000/svg">
<path d="M55.364 24.8166L32.831 2.28357C30.5016 -0.0459552 26.7108 -0.046088 24.3812 2.28357C22.287 4.37762 22.1066 7.57136 23.6531 9.85188L23.6217 10.0087C21.9972 18.1322 18.0422 25.5224 12.184 31.3805L1.84865 41.7158C-0.486459 44.0511 -0.486857 47.8304 1.84865 50.1656L7.48174 55.7987C9.81672 58.1338 13.5963 58.1339 15.9315 55.7987L17.3399 54.3904L27.198 64.2485C29.5331 66.5837 33.3124 66.5839 35.6476 64.2485C37.9773 61.919 37.9773 58.1284 35.6476 55.7988L31.4227 51.5739L32.8311 50.1656C35.1662 47.8306 35.1665 44.0513 32.8311 41.7159L31.874 40.7588C36.5821 37.4625 41.929 35.1676 47.639 34.0256L47.7978 33.9938C50.1291 35.5678 53.3154 35.3148 55.364 33.2662H55.3641C57.6934 30.9368 57.6934 27.1463 55.364 24.8166ZM13.115 52.9821C12.3367 53.7603 11.0766 53.7604 10.2983 52.982L4.6652 47.3489C3.88678 46.5704 3.88678 45.3108 4.6652 44.5324L14.5232 34.6742L22.973 43.124C22.0085 44.0885 14.1032 51.9938 13.115 52.9821ZM32.831 58.6152C33.6074 59.3917 33.6074 60.6552 32.831 61.4318C32.0545 62.2082 30.7908 62.2082 30.0144 61.4318L20.1563 51.5737L22.973 48.7571L32.831 58.6152ZM25.7895 45.9406C26.3882 45.3419 27.2844 44.4248 28.6989 43.2167L30.0144 44.5324C30.7928 45.3108 30.7928 46.5704 30.0144 47.3489L28.6061 48.7573L25.7895 45.9406ZM25.8741 40.3922L17.2549 31.773C21.8739 26.4393 25.1818 20.1434 26.9515 13.3035L44.3435 30.6956C37.5037 32.4652 31.2079 35.773 25.8741 40.3922ZM52.5471 30.4495C51.7686 31.2278 50.5089 31.2278 49.7305 30.4495L27.1977 7.91667C26.4193 7.13813 26.4193 5.87854 27.1977 5.10012C27.9761 4.32171 29.236 4.32171 30.0144 5.10012L52.5471 27.6328C53.3235 28.4093 53.3235 29.6728 52.5471 30.4495Z"/>
</svg>
