<svg width="87" height="83" viewBox="0 0 87 83" xmlns="http://www.w3.org/2000/svg">
<path d="M84.7514 0H1.68827C0.755838 0 0 0.756007 0 1.68827V19.0536C0 19.9859 0.755838 20.7419 1.68827 20.7419H84.7514C85.6838 20.7419 86.4397 19.9859 86.4397 19.0536V1.68827C86.4397 0.756007 85.6838 0 84.7514 0ZM83.0631 17.3654H3.37654V3.37654H83.0631V17.3654Z"/>
<path d="M79.249 13.5308L77.8702 12.1519C78.2465 11.4078 78.4469 10.5808 78.4469 9.72287C78.4469 8.28227 77.8859 6.9276 76.8672 5.9089C74.7643 3.80617 71.3427 3.806 69.2396 5.9089C68.2209 6.9276 67.6599 8.28227 67.6599 9.72287C67.6599 11.1635 68.2211 12.5181 69.2396 13.5367C70.2585 14.5554 71.613 15.1164 73.0536 15.1164C73.9117 15.1164 74.7385 14.9158 75.4826 14.5397L76.8615 15.9185C77.1912 16.248 77.6232 16.413 78.0552 16.413C78.4873 16.413 78.9195 16.248 79.249 15.9185C79.9083 15.2592 79.9083 14.1902 79.249 13.5308ZM74.4798 11.149C74.0989 11.53 73.5925 11.7398 73.0536 11.7398C72.5147 11.7398 72.0084 11.53 71.6273 11.149C71.2464 10.7679 71.0364 10.2616 71.0364 9.72287C71.0364 9.18414 71.2464 8.67749 71.6273 8.29662C72.0205 7.90342 72.5371 7.70691 73.0536 7.70691C73.57 7.70691 74.0866 7.90342 74.4798 8.29662C74.8607 8.67766 75.0707 9.18414 75.0707 9.72287C75.0707 10.2616 74.8609 10.7681 74.4798 11.149Z"/>
<path d="M60.4976 13.098C60.4756 12.9897 60.4436 12.8834 60.4014 12.7823C60.3592 12.6808 60.3068 12.5813 60.246 12.4902C60.1853 12.399 60.1144 12.3112 60.0367 12.2336C59.959 12.1559 59.8729 12.085 59.7801 12.0242C59.6889 11.9634 59.591 11.9111 59.488 11.8689C59.3867 11.8267 59.2804 11.7946 59.1723 11.7727C58.9545 11.7288 58.73 11.7288 58.5122 11.7727C58.4041 11.7946 58.2978 11.8267 58.1965 11.8689C58.0952 11.9111 57.9973 11.9634 57.9061 12.0242C57.8132 12.085 57.7271 12.1559 57.6478 12.2336C57.5701 12.3112 57.5009 12.3988 57.4384 12.4902C57.3777 12.5813 57.3253 12.681 57.2831 12.7823C57.2409 12.8835 57.2088 12.9897 57.1869 13.098C57.1649 13.2075 57.1548 13.3174 57.1548 13.4289C57.1548 13.5384 57.1649 13.6483 57.1869 13.7581C57.2088 13.8661 57.2409 13.9725 57.2831 14.0736C57.3253 14.1751 57.3777 14.273 57.4384 14.3657C57.5009 14.4568 57.5701 14.5446 57.6478 14.6223C57.7271 14.7 57.8132 14.771 57.9061 14.8316C57.9973 14.8924 58.0952 14.9448 58.1965 14.987C58.2995 15.0292 58.4058 15.0612 58.5122 15.0832C58.6219 15.1051 58.7333 15.1153 58.8431 15.1153C58.9528 15.1153 59.0643 15.105 59.1723 15.0832C59.2804 15.0614 59.3867 15.0292 59.488 14.987C59.5893 14.9448 59.6889 14.8924 59.7801 14.8316C59.8729 14.771 59.959 14.7 60.0367 14.6223C60.3507 14.3068 60.5314 13.8729 60.5314 13.4289C60.5314 13.3174 60.5195 13.2075 60.4976 13.098Z"/>
<path d="M52.4421 11.7397H17.3543C16.4219 11.7397 15.6661 12.4958 15.6661 13.428C15.6661 14.3603 16.4219 15.1163 17.3543 15.1163H52.4421C53.3746 15.1163 54.1304 14.3603 54.1304 13.428C54.1304 12.4958 53.3746 11.7397 52.4421 11.7397Z"/>
<path d="M53.1502 23.1488H1.88761C0.955178 23.1488 0.199341 23.9048 0.199341 24.8371V58.1295C0.199341 59.062 0.955178 59.8178 1.88761 59.8178H53.1502C54.0826 59.8178 54.8384 59.0618 54.8384 58.1295V24.8371C54.8384 23.9048 54.0826 23.1488 53.1502 23.1488ZM20.5641 56.4411H6.23389L15.8849 45.2671L22.8743 53.3607L20.5641 56.4411ZM24.7847 56.4411L27.9327 52.2439H36.1189C37.0514 52.2439 37.8072 51.4879 37.8072 50.5556C37.8072 49.6234 37.0514 48.8674 36.1189 48.8674H30.4653L31.6497 47.2882H42.2502L49.1156 56.4411H24.7847ZM34.182 43.9116L36.9499 40.2212L39.7178 43.9116H34.182ZM51.4619 53.9421L38.3005 36.3943C37.9816 35.9692 37.4812 35.719 36.9499 35.719C36.4186 35.719 35.9182 35.9692 35.5993 36.3943L24.948 50.5958L17.1627 41.5805C16.8421 41.2092 16.3756 40.9956 15.885 40.9956C15.3944 40.9956 14.9281 41.2092 14.6074 41.5805L3.57588 54.3527V26.5253H51.4619V53.9421Z"/>
<path d="M23.2387 28.4637C19.9476 28.4637 17.2701 31.1412 17.2701 34.4323C17.2701 37.7234 19.9477 40.4008 23.2387 40.4008C26.5298 40.4008 29.2072 37.7234 29.2072 34.4323C29.2072 31.1412 26.5298 28.4637 23.2387 28.4637ZM23.2387 37.0244C21.8094 37.0244 20.6467 35.8617 20.6467 34.4324C20.6467 33.0032 21.8096 31.8405 23.2387 31.8405C24.6678 31.8405 25.8307 33.0032 25.8307 34.4324C25.8307 35.8617 24.668 37.0244 23.2387 37.0244Z"/>
<path d="M84.7514 23.1488H58.8044C57.872 23.1488 57.1161 23.9048 57.1161 24.8371V58.1295C57.1161 59.0618 57.872 59.8178 58.8044 59.8178H84.7514C85.6838 59.8178 86.4396 59.0618 86.4396 58.1295V24.8371C86.4396 23.9048 85.6838 23.1488 84.7514 23.1488ZM83.0631 56.4413H60.4927V26.5253H83.0631V56.4413Z"/>
<path d="M79.1324 29.306H64.4235C63.4911 29.306 62.7352 30.062 62.7352 30.9943C62.7352 31.9266 63.4911 32.6826 64.4235 32.6826H79.1324C80.0648 32.6826 80.8206 31.9266 80.8206 30.9943C80.8206 30.062 80.0648 29.306 79.1324 29.306Z"/>
<path d="M79.1324 36.0817H64.4235C63.4911 36.0817 62.7352 36.8377 62.7352 37.7699C62.7352 38.7022 63.4911 39.4582 64.4235 39.4582H79.1324C80.0648 39.4582 80.8206 38.7022 80.8206 37.7699C80.8206 36.8377 80.0648 36.0817 79.1324 36.0817Z"/>
<path d="M79.1324 42.8573H64.4235C63.4911 42.8573 62.7352 43.6133 62.7352 44.5456C62.7352 45.4778 63.4911 46.2338 64.4235 46.2338H79.1324C80.0648 46.2338 80.8206 45.4778 80.8206 44.5456C80.8206 43.6133 80.0648 42.8573 79.1324 42.8573Z"/>
<path d="M66.079 50.9912C66.057 50.883 66.0249 50.7767 65.9827 50.6755C65.9405 50.5741 65.8882 50.4762 65.8274 50.3835C65.7649 50.2923 65.6957 50.2045 65.6164 50.1269C65.2247 49.7352 64.6422 49.5544 64.0936 49.666C63.9855 49.6879 63.8791 49.72 63.7778 49.7622C63.6765 49.8044 63.5786 49.8567 63.4858 49.9175C63.3946 49.9783 63.3068 50.0492 63.2292 50.1269C63.1515 50.2045 63.0806 50.2921 63.0198 50.3835C62.959 50.4763 62.9067 50.5742 62.8645 50.6755C62.8223 50.7768 62.7902 50.883 62.7683 50.9912C62.7463 51.1008 62.7345 51.2107 62.7345 51.3203C62.7345 51.4317 62.7463 51.5416 62.7683 51.6512C62.7902 51.7594 62.8223 51.8658 62.8645 51.9671C62.9067 52.0685 62.959 52.1664 63.0198 52.2591C63.0806 52.3503 63.1515 52.4381 63.2292 52.5158C63.3068 52.5934 63.3946 52.6643 63.4858 52.7251C63.5786 52.7859 63.6765 52.8382 63.7778 52.8804C63.8791 52.9226 63.9855 52.9547 64.0936 52.9766C64.2033 52.9986 64.313 53.0104 64.4245 53.0104C64.8685 53.0104 65.3024 52.8298 65.6164 52.5156C65.694 52.4379 65.7649 52.3503 65.8274 52.259C65.8882 52.1661 65.9405 52.0682 65.9827 51.9669C66.0249 51.8656 66.057 51.7594 66.079 51.6512C66.1009 51.5416 66.111 51.4317 66.111 51.3203C66.111 51.2107 66.1009 51.1008 66.079 50.9912Z"/>
<path d="M79.1324 49.6331H70.8237C69.8913 49.6331 69.1355 50.3891 69.1355 51.3213C69.1355 52.2536 69.8913 53.0096 70.8237 53.0096H79.1324C80.0648 53.0096 80.8206 52.2536 80.8206 51.3213C80.8206 50.3891 80.0648 49.6331 79.1324 49.6331Z"/>
<path d="M27.8346 62.2131H1.88761C0.955178 62.2131 0.199341 62.9691 0.199341 63.9014V81.2909C0.199341 82.2232 0.955178 82.9792 1.88761 82.9792H27.8346C28.767 82.9792 29.5229 82.2232 29.5229 81.2909V63.9014C29.5229 62.9691 28.767 62.2131 27.8346 62.2131ZM26.1463 79.6026H3.57588V65.5897H26.1463V79.6026Z"/>
<path d="M84.7514 62.2131H33.7195C32.787 62.2131 32.0312 62.9691 32.0312 63.9014V81.2909C32.0312 82.2232 32.787 82.9792 33.7195 82.9792H84.7514C85.6838 82.9792 86.4397 82.2232 86.4397 81.2909V63.9014C86.4397 62.9691 85.6838 62.2131 84.7514 62.2131ZM83.0631 79.6026H35.4077V65.5897H83.0631V79.6026Z"/>
<path d="M43.0982 72.2668C43.0763 72.159 43.0442 72.0524 43.002 71.9511C42.9598 71.8481 42.9075 71.7504 42.8467 71.6592C42.7859 71.5662 42.715 71.4801 42.6373 71.4024C42.5597 71.3248 42.4736 71.2539 42.3807 71.1931C42.2896 71.1325 42.1916 71.08 42.0886 71.0378C41.9874 70.9956 41.881 70.9618 41.7729 70.9399C41.5552 70.8977 41.3306 70.8977 41.1128 70.9399C41.0065 70.9618 40.9001 70.9956 40.7971 71.0378C40.6958 71.08 40.5979 71.1325 40.5067 71.1931C40.4139 71.2539 40.3278 71.3248 40.2501 71.4024C40.1725 71.4801 40.1016 71.5662 40.0391 71.6592C39.9783 71.7504 39.926 71.8481 39.8838 71.9511C39.8416 72.0526 39.8095 72.1588 39.7875 72.2668C39.7656 72.3749 39.7555 72.4863 39.7555 72.596C39.7555 72.7056 39.7656 72.8172 39.7875 72.9253C39.8095 73.0331 39.8416 73.1395 39.8838 73.2425C39.926 73.3438 39.9783 73.4417 40.0391 73.5329C40.1016 73.6257 40.1725 73.7118 40.2501 73.7895C40.5641 74.1035 40.9997 74.2843 41.4437 74.2843C41.5535 74.2843 41.6649 74.274 41.7729 74.2522C41.881 74.2303 41.9874 74.1965 42.0886 74.1543C42.1916 74.1121 42.2896 74.0615 42.3807 73.999C42.4736 73.9384 42.5597 73.8675 42.6373 73.7896C42.715 73.712 42.7859 73.6259 42.8467 73.533C42.9075 73.4419 42.9598 73.3439 43.002 73.2427C43.0442 73.1397 43.0763 73.0333 43.0982 72.9253C43.1202 72.817 43.132 72.7056 43.132 72.596C43.132 72.4863 43.1202 72.3747 43.0982 72.2668Z"/>
<path d="M76.1947 70.9077H47.8436C46.9112 70.9077 46.1554 71.6637 46.1554 72.596C46.1554 73.5282 46.9112 74.2842 47.8436 74.2842H76.1947C77.1271 74.2842 77.883 73.5282 77.883 72.596C77.883 71.6637 77.1271 70.9077 76.1947 70.9077Z"/>
</svg>
